<svg width="600" height="913" viewBox="0 0 600 913" fill="none" xmlns="http://www.w3.org/2000/svg">
<path d="M198.257 284.401C219.226 184.126 283.105 97.2769 368.402 41.6329C393.324 25.3749 420.706 11.5609 449.218 2.90693C452.838 1.80743 458.283 -0.416075 461.983 0.067925C463.713 2.79343 460.493 15.4029 459.728 18.8604C439.542 110.017 351.616 190.22 289.898 255.854C284.338 261.767 279.014 267.749 274.011 274.147C268.962 280.602 264.276 287.416 258.748 293.477C268.97 299.52 277.577 306.853 286.793 314.25C302.686 309.767 317.685 303.364 330.392 292.609C335.054 288.662 339.256 284.128 343.993 280.299C341.349 301.344 333.956 321.512 322.373 339.281C356.225 351.057 388.163 379.318 410.336 406.975C416.838 415.085 422.832 426.479 431.842 431.833L432.421 431.438C441.02 425.459 447.475 416.94 451.528 407.348C453.073 403.688 454.368 399.515 456.488 396.162C458.503 397.679 459.253 403.583 459.623 406.107C461.403 418.208 461.208 430.643 461.203 442.839C465.273 435.505 468.043 427.689 470.893 419.83C471.798 417.326 474.298 408.394 475.543 406.709C475.728 406.456 476.008 406.288 476.243 406.078C479.278 408.717 480.333 424.596 480.663 429.369C484.103 479.544 468.823 535.744 441.1 577.594C433.216 589.494 422.87 599.494 414.794 611.124C424.497 605.934 433.567 598.294 442.396 591.704C462.708 576.554 484.113 561.264 501.968 543.234C498.638 537.014 497.303 531.359 499.493 524.374C501.093 519.289 504.758 514.659 509.653 512.379C512.483 511.059 516.273 510.464 519.353 509.819C519.677 508.513 519.972 507.199 520.238 505.879C520.268 503.024 521.108 500.039 521.618 497.224C522.708 491.214 522.873 484.864 521.733 478.844C520.693 473.369 512.938 457.614 513.528 454.579C513.783 453.269 514.533 452.484 515.638 451.809C517.648 450.579 520.753 450.739 522.953 451.234C529.413 452.684 534.458 458.454 537.768 463.849L538.323 463.839L539.538 461.904C542.638 451.059 549.473 437.783 559.873 432.239C563.043 430.549 566.893 429.468 570.443 430.501C574.353 431.636 576.888 435.15 578.638 438.61C587.688 456.479 580.123 481.854 573.938 499.679C570.253 510.309 565.458 523.564 554.663 528.924C552.578 529.959 550.318 530.454 548.063 530.974C550.768 535.524 553.153 540.504 551.928 545.944C550.858 550.704 547.123 554.304 543.028 556.664C535.848 560.809 528.178 560.769 520.448 558.564L519.933 558.409C490.973 586.249 453.848 617.299 419.66 638.209C454.748 665.739 479.348 690.459 499.753 730.844C503.348 737.959 508.193 746.359 509.893 754.139C501.518 769.109 488.948 780.829 475.558 791.294L484.648 821.899C488.108 833.384 493.378 848.639 493.873 860.529C514.858 834.479 548.593 799.519 583.203 795.749C588.383 795.184 593.743 795.094 598.103 798.429C598.768 798.939 599.378 799.524 599.978 800.114C586.158 823.804 511.273 886.134 485.458 893.649C485.063 890.609 484.783 887.689 484.773 884.619C478.818 877.454 473.518 869.724 467.798 862.364L431.996 816.949C417.302 823.329 402.098 827.499 386.615 831.489C382.275 847.024 378.402 863.484 376.31 879.489C375.661 884.449 375.651 889.469 375.195 894.444C367.976 899.244 359.446 901.159 351.151 903.299C323.009 910.549 287.827 915.434 259.166 909.329C257.421 908.959 255.268 908.324 254.326 906.684C253.589 905.404 254.109 903.529 254.603 902.244C258.664 891.699 271.948 883.789 281.82 879.689C302.519 871.094 332.274 869.334 354.038 874.939C349.552 863.309 345.165 851.779 341.585 839.829C338.89 843.044 335.75 846.969 331.311 847.634C330.418 847.769 329.643 847.484 328.803 847.219C324.439 849.619 317.925 854.884 312.717 853.404C310.894 852.884 309.789 851.819 308.917 850.169C308.476 849.339 308.091 848.474 307.7 847.619C301.012 847.439 292.818 847.279 287.751 842.204C285.837 840.284 284.902 838.074 284.97 835.354C285.032 832.914 285.646 831.149 287.069 829.159C282.99 828.154 276.627 826.544 274.195 822.809C273.32 821.464 273.174 820.189 273.639 818.654C274.875 814.574 284.625 805.639 284.708 804.574C284.79 803.539 283.398 800.929 283.17 799.674C282.301 794.874 289.587 789.239 293.231 787.459C298.186 785.034 303.93 784.174 309.213 786.094C311.369 786.874 313.193 788.309 315.007 789.669C309.86 768.474 306.214 734.844 305.996 712.829C293.235 726.674 280.811 741.729 269.895 757.089C273.747 760.819 276.376 765.349 276.56 770.819C276.647 773.215 276.256 775.605 275.409 777.848C274.563 780.091 273.278 782.143 271.629 783.884C267.249 788.489 261.914 789.624 255.82 789.939C257.2 795.864 261.163 807.779 261.685 812.639C261.849 814.159 261.783 815.889 260.952 817.229C260.157 818.509 258.81 819.104 257.352 819.234C253.899 819.544 250.15 817.784 247.605 815.564C244.251 812.639 242.458 808.954 240.858 804.889C237.876 810.414 225.188 838.389 220.322 839.519C218.721 839.889 217.135 838.899 215.562 838.844C211.885 838.719 210.296 843.654 204.203 838.499C199.447 834.474 198.118 826.034 197.824 820.109C196.798 799.369 206.616 783.319 218.437 767.324C217.06 760.839 216.876 754.914 220.553 749.049C222.086 746.613 224.09 744.507 226.448 742.856C228.807 741.205 231.471 740.041 234.285 739.434C239.37 738.354 244.25 739.094 249.284 740.024C264.439 718.154 280.053 694.764 300.127 677.009C297.889 674.649 296.059 672.269 294.261 669.559C228.346 680.524 160.898 670.584 105.762 631.209C98.4199 625.964 88.8138 619.044 84.2778 611.129C96.9483 611.719 111.958 613.084 124.293 609.889C116.603 606.909 109.216 604.184 102.616 599.099C113.884 596.444 125.366 591.989 131.743 581.729C135.58 575.559 137.837 567.524 138.019 560.274C138.216 552.399 136.054 544.259 134.465 536.604C131.622 522.909 128.246 509.354 125.713 495.589C124.809 500.704 124.635 508.719 120.013 511.874C116.154 514.509 111.039 514.149 106.676 513.214C95.1874 510.754 84.5098 501.724 78.3058 491.999C73.7043 484.789 73.3324 477.309 73.2979 468.984C68.2449 467.434 63.4104 465.874 58.6799 463.459C49.2809 472.879 39.8789 484.169 35.8889 497.099C46.9129 497.299 56.8824 500.719 64.6759 508.754C71.7879 516.084 75.2969 525.594 75.0799 535.789C74.9857 540.76 73.8845 545.66 71.8431 550.194C69.8016 554.727 66.8621 558.799 63.2024 562.164C55.8684 569.014 45.3264 573.149 35.2629 572.784C25.2169 572.419 15.8229 567.684 9.06085 560.329C2.49935 553.189 -0.439149 543.289 0.052851 533.709C0.601351 523.039 5.26236 513.629 13.2459 506.544C16.7029 503.518 20.5404 500.957 24.6608 498.924C20.0583 466.394 26.3979 430.292 32.3389 398.379C28.1924 386.755 24.0418 375.377 20.9668 363.403C0.172348 282.431 6.70036 191.907 42.6744 116.097C58.1055 84.1738 78.6787 55.004 103.571 29.7539C107.584 25.6124 113.974 18.1629 119.494 16.4044C120.481 16.0899 120.916 16.0909 121.885 16.3494C128.486 23.2109 131.315 78.5669 131.087 90.7029C130.04 146.444 116.053 200.925 104.363 255.106C100.763 271.794 98.1499 288.574 94.9924 305.33C124.208 283.465 153.813 277.876 189.561 283.001C192.465 283.417 195.378 283.839 198.257 284.401Z" fill="black"/>
<path d="M378.677 703.93C381.181 707.04 385.163 712.82 386.304 716.59C386.365 716.79 386.417 716.995 386.474 717.195L386.511 716.77L386.553 716.915L386.228 717.375C383.281 714.41 380.129 711.875 376.823 709.32L378.677 703.93Z" fill="#4E9B0D"/>
<path d="M340.227 788.909C343.25 790.264 348.627 796.404 351.383 799.004L345.531 799.249C342.074 799.644 338.571 799.849 335.103 800.139C336.717 796.354 338.425 792.609 340.227 788.909Z" fill="#4E9B0D"/>
<path d="M248.095 788.984C249.57 789.134 250.791 789.339 252.185 789.849C252.479 790.294 252.618 790.449 252.788 791.024C253.622 793.819 253.174 797.014 253.761 799.864C254.504 803.474 258.483 810.924 256.901 814.289C255.542 814.909 255.156 814.709 253.718 814.479C248.211 811.069 245.982 805.769 243.188 800.209C245.11 796.539 246.732 792.894 248.095 788.984Z" fill="#FEFEFC"/>
<path d="M475.638 704.884C480.288 709.019 485.933 719.809 489.378 725.449C487.913 727.579 486.328 729.649 484.798 731.739C480.473 728.284 475.728 725.399 470.968 722.579C473.208 716.959 474.323 710.774 475.638 704.884Z" fill="#4E9B0D"/>
<path d="M393.864 773.869C399.877 778.019 406.227 781.634 412.626 785.144C408.115 786.694 403.491 787.999 398.93 789.399C394.107 790.874 389.241 792.205 384.339 793.389C387.618 786.934 390.794 780.426 393.864 773.869Z" fill="#4E9B0D"/>
<path d="M403.751 750.93C406.851 754.71 414.305 775.81 416.846 782.055L410.472 778.63C405.466 775.806 400.532 772.857 395.675 769.785C398.114 763.68 400.28 756.475 403.751 750.93Z" fill="#4E9B0D"/>
<path d="M313.312 703.419C317.978 706.274 323.127 715.009 327.721 719.189C325.458 724.433 322.935 729.561 320.163 734.554C318.722 737.23 317.247 739.887 315.738 742.524C313.931 729.634 313.806 716.404 313.312 703.419Z" fill="#4E9B0D"/>
<path d="M362.629 680.794L363.709 680.669C367.19 682.359 374.059 695.999 376.349 700.034C375.478 702.239 374.457 704.399 373.496 706.569L367.212 700.989C360.736 695.409 354.735 689.359 348.091 683.954C352.892 682.759 357.79 681.839 362.629 680.794Z" fill="#4E9B0D"/>
<path d="M318.706 764.574C321.315 766.689 323.655 770.129 325.841 772.734C329.51 777.099 333.197 781.329 337.201 785.394C336.035 788.264 334.625 791.064 333.304 793.869L330.684 798.864L323.352 798.579C321.476 787.304 320.144 775.914 318.706 764.574Z" fill="#4E9B0D"/>
<path d="M343.699 684.984C343.705 685.709 343.788 685.409 343.42 686.084C338.325 695.474 334.828 705.719 329.925 715.244L323.052 707.374L314.782 698.954C318.434 694.514 321.741 690.009 324.852 685.174C331.192 685.369 337.37 685.424 343.699 684.984Z" fill="#4E9B0D"/>
<path d="M412.444 642.384C416.426 643.719 435.433 660.274 440.4 664.259C439.767 673.804 437.795 683.554 436.697 693.094L436.436 694.069L435.956 693.989C431.067 684.409 426.28 674.699 420.983 665.339C417.626 659.409 412.477 652.799 410.222 646.464C410.316 644.639 411.325 643.709 412.444 642.384Z" fill="#4E9B0D"/>
<path d="M445.065 713.5C457.733 719.73 470.518 727.56 482.298 735.33C479.078 738.545 475.918 741.83 472.728 745.075C468.783 749.095 464.933 752.255 460.153 755.255C455.838 741.035 449.888 727.52 445.065 713.5Z" fill="#4E9B0D"/>
<path d="M444.032 668.35C450.229 671.46 467.819 692.44 472.529 698.955C471.039 706.14 469.449 713.304 467.759 720.445C464.424 720.475 449.164 710.015 443.09 708.44L439.437 700.98C441.054 690.205 441.74 678.975 444.032 668.35Z" fill="#4E9B0D"/>
<path d="M590.113 804.634L590.788 804.779L590.633 805.454C583.603 812.809 577.088 820.594 569.763 827.679C560.743 836.409 550.813 844.049 541.058 851.924C526.133 863.964 507.968 878.799 491.028 887.709L490.448 887.464C490.463 886.944 490.433 886.884 490.638 886.319C493.048 879.774 557.658 824.424 567.723 817.134C574.788 812.009 582.048 807.944 590.113 804.634Z" fill="#FABDB0"/>
<path d="M517.183 515.709C517.753 515.684 518.313 515.869 518.868 515.989C523.503 520.279 528.558 523.599 534.108 526.589C530.703 526.739 524.133 525.534 521.218 526.719L521.703 526.909L521.048 527.089C521.048 527.389 521.003 527.689 521.053 527.984C521.118 528.359 521.513 528.734 521.778 528.944C525.383 531.794 534.488 529.959 538.848 529.494C539.853 530.169 540.863 530.849 541.773 531.649C544.503 534.054 546.883 537.964 547.063 541.669C547.208 544.694 546.208 546.234 544.198 548.369C542.393 549.745 540.408 550.867 538.298 551.704C532.238 554.054 525.678 553.604 519.838 550.809C513.708 547.874 507.298 541.759 505.283 535.144C504.673 533.114 504.484 530.981 504.727 528.876C504.97 526.77 505.641 524.737 506.698 522.899C509.078 518.764 512.713 516.839 517.183 515.709Z" fill="#FEFEFC"/>
<path d="M238.187 743.844C240.993 743.909 243.682 744.304 246.451 744.724C244.681 748.314 242.192 751.604 241.218 755.544C240.663 757.794 240.799 760.029 242.068 762.014C244.978 766.574 253.366 768.819 258.388 769.809C264.48 767.679 262.433 764.879 266.232 761.789C266.873 761.269 267.598 761.684 268.35 761.829C269.712 763.064 270.204 763.889 270.386 765.744C270.937 771.374 269.544 776.099 265.969 780.414C263.453 782.564 261.186 783.884 257.889 784.469C249.528 785.959 240.14 781.774 233.391 777.134C227.956 773.394 223.099 768.274 222.044 761.509C221.458 757.754 222.085 753.664 224.395 750.569C227.603 746.269 233.103 744.569 238.187 743.844Z" fill="#FEFEFC"/>
<path d="M346.832 687.64C354.173 695.92 363.41 703.355 371.669 710.73C367.31 721.485 363.005 732.295 357.963 742.755L332.498 718.76C337.707 708.575 342.258 698.12 346.832 687.64Z" fill="#4E9B0D"/>
<path d="M375.095 713.475C380.615 718.36 388.622 722.48 392.717 728.57C396.312 733.92 398.309 740.665 401.538 746.345C398.089 753.07 395.373 760.165 392.527 767.16C391.07 766.765 390.057 765.925 388.828 765.075C379.471 758.79 370.427 752.08 361.175 745.645C366.297 735.095 370.756 724.375 375.095 713.475Z" fill="#4E9B0D"/>
<path d="M330.888 722.464C339.197 730.539 346.979 738.839 355.772 746.424C350.679 757.868 345.375 769.217 339.862 780.464L339.488 780.964L338.637 780.939C332.761 775.064 321.069 763.709 317.53 756.829C316.615 755.049 316.309 752.694 315.913 750.739C321.59 741.574 326.313 732.219 330.888 722.464Z" fill="#4E9B0D"/>
<path d="M305.639 680.469C310.076 681.214 315.538 683.499 319.822 685.009C303.411 702.789 286.84 720.564 272.298 739.939C267.268 746.634 262.763 753.809 258.135 760.789L255.491 764.799C252.377 763.709 249.487 762.514 246.554 761.004C259.773 732.814 283.51 702.144 305.639 680.469Z" fill="#4E9B0D"/>
<path d="M36.8646 409.06C40.1461 412.29 46.4241 425.978 49.5381 431.079C56.6396 442.71 65.4951 452.825 73.7451 463.615C67.9601 461.96 62.3661 459.665 56.7521 457.515C53.1008 460.647 49.7348 464.097 46.6936 467.825C42.4126 472.89 37.1331 479.845 34.5396 486.01C33.8786 487.58 33.9751 489.315 33.5296 490.94C33.1516 492.315 33.0656 492.255 31.8516 492.9L32.6311 492.8L31.0771 492.47C30.8441 491.765 30.8211 491.385 30.9271 490.645C31.5276 486.445 30.7746 482.43 30.7001 478.22C30.6513 472.368 30.8071 466.516 31.1671 460.675C32.1241 443.32 34.9106 426.306 36.8646 409.06Z" fill="#A2110B"/>
<path d="M359.249 749.354C369.19 757.189 379.738 764.234 389.991 771.654C386.414 779.288 382.901 786.952 379.452 794.644L372.088 796.109C367.262 796.995 362.412 797.746 357.545 798.365L342.582 785.24C346.876 773.735 354.162 761.034 359.249 749.354Z" fill="#4E9B0D"/>
<path d="M303.909 793.259C308.37 793.104 311.872 793.789 316.085 795.219C316.739 806.509 318.615 820.424 323.188 830.814C327.8 832.419 332.559 833.484 337.301 834.629C336.151 835.714 334.957 836.799 333.654 837.699C331.772 839.009 330.211 838.764 328.066 838.314C325.094 837.694 321.163 844.244 318.221 845.424C316.943 845.934 316.686 845.844 315.482 845.389C314.284 843.899 314.539 842.249 314.55 840.439L307.323 840.929C306.739 840.889 306.098 840.644 305.531 840.489C304.188 839.044 303.886 836.969 303.39 835.109C302.323 836.389 300.869 838.339 299.293 838.974C297.965 839.509 296.166 839.039 294.924 838.429C293.507 837.734 292.72 836.884 292.207 835.374C292.219 832.409 294.542 829.999 295.825 827.454C296.407 826.294 296.366 825.379 295.979 824.159C293.454 821.369 287.516 822.139 283.894 821.344C282.117 820.954 281.55 820.379 280.556 818.899C280.614 811.359 290.6 811.774 293.823 806.909C294.234 806.284 294.443 805.649 294.258 804.929C293.681 802.674 290.981 801.269 289.177 800.029C293.852 796.564 298.094 794.284 303.909 793.259Z" fill="#FEFEFC"/>
<path d="M204.988 831.819C200.438 823.819 203.082 810.044 205.356 801.674C208.346 790.674 213.787 780.149 220.649 771.044C227.312 780.359 234.302 784.429 244.927 788.529C240.87 797.519 235.637 805.854 230.955 814.509C228.132 819.729 225.972 825.409 222.925 830.484C222.091 831.874 221.218 833.034 219.97 834.074L219.078 834.054C216.481 827.789 226.59 804.914 224.044 800.669C219.387 803.759 216.579 828.254 213.375 833.454C212.56 834.779 211.23 835.439 209.911 836.164L209.198 836.424C207.151 835.809 205.946 833.584 204.988 831.819Z" fill="#FEFEFC"/>
<path d="M217.656 789.699C217.033 801.199 205.062 826.299 209.91 836.164L209.198 836.424C207.15 835.809 205.945 833.584 204.987 831.819C205.978 817.854 209.826 801.399 217.656 789.699Z" fill="#A2110B"/>
<path d="M504.483 547.274C507.503 549.629 510.128 552.324 513.268 554.609C505.658 562.704 496.978 570.099 488.568 577.339C480.013 584.699 471.453 592.199 462.563 599.149C449.383 609.454 435.535 619.039 421.979 628.844L417.064 632.659L417.983 614.624C430.598 606.319 442.679 597.299 454.783 588.274C471.983 575.454 489.198 562.369 504.483 547.274Z" fill="#4E9B0D"/>
<path d="M467.608 797.159C468.543 798.349 490.873 860.664 491.033 863.234C490.408 864.404 489.663 865.454 489.768 866.824C491.648 867.259 494.288 864.359 495.588 863.059C502.658 856.014 509.258 848.484 516.343 841.434C537.168 820.734 561.553 803.794 591.348 799.959C581.308 804.314 572.388 809.464 563.478 815.814C545.853 828.829 529.503 844.109 513.413 858.964C505.073 866.669 495.903 874.254 488.983 883.264C478.444 866.846 467.428 850.739 455.948 834.964C450.728 827.679 444.546 820.964 440.057 813.184C449.678 808.549 458.673 802.984 467.608 797.159Z" fill="#FEFEFC"/>
<path d="M345.267 835.254C356.459 835.329 367.945 834.239 379.001 832.544C373.293 849.754 371.248 870.424 370.196 888.514C343.758 899.114 316.777 902.304 288.615 904.004C287.21 904.519 286.492 904.699 284.958 904.529C281.795 903.879 278.314 904.114 275.086 904.114C278.593 897.704 283.462 893.004 287.629 887.119C280.825 891.764 275.734 896.874 271.969 904.264L262.429 903.449C262.546 903.284 262.659 903.119 262.78 902.959C273.579 888.524 292.258 882.119 309.457 879.769C319.206 878.439 345.929 875.589 354.919 878.114C356.417 878.534 357.977 879.924 359.223 880.869C355.444 865.479 350.16 850.319 345.267 835.254Z" fill="#FEFEFC"/>
<path d="M284.958 904.529C284.99 903.059 285.28 901.909 285.96 900.614C290.749 891.479 301.674 884.589 311.363 881.839C304.106 887.144 296.378 891.464 290.83 898.774C289.625 900.359 288.339 901.989 288.616 904.004C287.21 904.519 286.493 904.699 284.958 904.529Z" fill="#A2110B"/>
<path d="M35.3849 503.32C41.5294 502.715 48.1919 504.575 53.4174 507.8C57.0294 510.045 60.1606 512.984 62.6298 516.447C65.099 519.91 66.8572 523.828 67.8029 527.975C69.5874 535.895 67.9814 544.95 63.5024 551.76C58.3204 559.635 50.3694 563.815 41.3239 565.605C33.4519 566.525 25.8379 564.925 19.3559 560.235C12.6549 555.385 8.42888 548.065 7.16638 539.935C5.83338 531.345 7.83038 522.575 13.0879 515.615C18.7339 508.14 26.2574 504.555 35.3849 503.32Z" fill="#FEFEFC"/>
<path d="M540.978 464.269C545.313 458.454 547.723 450.434 552.278 444.209C555.288 440.099 559.583 435.92 564.873 435.286C566.653 435.073 568.643 435.488 569.993 436.737C571.703 438.315 571.348 440.818 571.328 442.939C570.653 451.942 568.966 460.84 566.298 469.464C564.593 474.844 562.453 480.054 560.978 485.509L561.653 486.014L561.408 486.384L560.873 486.174V486.704C561.923 486.419 562.638 484.949 563.213 484.059C569.858 473.729 575.528 450.819 572.653 438.706C574.073 439.433 574.603 441.026 575.093 442.524C580.843 460.179 571.183 495.624 562.243 511.974C559.288 517.374 555.053 522.894 548.948 524.794C543.493 526.494 537.213 524.494 532.368 521.789C529.053 519.939 527.043 517.829 525.223 514.544L524.988 508.669C527.783 495.379 529.883 483.734 524.598 470.699C523.273 467.434 521.403 464.419 519.993 461.194C519.148 459.264 518.303 457.569 519.103 455.509L520.393 455.194C523.853 456.049 526.833 457.979 529.268 460.564C536.323 468.054 538.333 479.354 537.883 489.269C539.353 487.814 540.608 486.304 541.858 484.654C541.758 481.129 539.338 467.939 539.608 466.774C539.773 466.069 540.608 464.949 540.978 464.269Z" fill="#FEFEFC"/>
<path d="M561.763 444.399C561.953 442.209 561.883 438.827 563.428 437.111C564.403 437.705 564.328 437.994 564.593 439.06C565.233 441.641 564.488 444.509 564.053 447.079C563.493 445.444 563.128 445.369 561.763 444.399Z" fill="#A2110B"/>
<path d="M561.763 444.399C563.128 445.369 563.493 445.444 564.053 447.079C562.458 456.994 559.643 468.299 554.908 477.164L554.523 477.224C554.188 475.549 554.388 473.979 554.738 472.309C555.538 468.519 557.123 464.859 558.133 461.109C559.603 455.644 560.608 449.944 561.763 444.399Z" fill="black"/>
<path d="M542.123 484.459C542.693 484.639 543.283 484.799 543.818 485.089C547.403 487.024 549.918 491.709 550.978 495.479C553.028 502.759 551.858 509.724 548.178 516.199C547.883 516.474 547.373 516.754 547.033 516.979C545.413 515.049 548.918 502.569 548.298 498.654C547.438 493.204 542.703 488.859 542.123 484.459Z" fill="black"/>
<path d="M230.696 355.95C258.733 353.764 286.591 340.553 307.812 322.332C310.946 319.641 314.505 316.881 317.219 313.77C319.589 311.053 321.287 307.717 323.707 305.06C327.196 301.23 332.312 298.433 336.334 295.141C331.093 312.115 326.573 319.773 314.205 332.555C311.406 334.091 308.538 337.23 305.984 339.306C301.55 342.953 296.914 346.346 292.098 349.471C269.965 364.2 244.36 372.873 217.832 374.627C213.659 374.928 209.392 375.226 205.211 375.161C203.028 375.126 200.904 374.771 198.717 374.908C198.709 375.565 198.582 375.45 199.124 375.918C201.998 378.398 218.547 377.32 222.785 376.992C257.489 374.304 296.864 357.274 319.842 330.37L320.812 329.628C320.352 331.967 318.013 334.663 316.588 336.572C306.214 350.474 291.866 363.646 277.498 373.311C254.48 388.796 222.026 394.306 194.857 388.825C191.385 388.124 188.093 387.099 184.775 385.873C188.445 381.444 192.854 377.781 197.072 373.898C216.732 355.801 239.35 339.035 264.464 329.291C272.346 326.234 280.619 324.209 288.639 321.551C298.44 318.302 307.742 314.243 316.986 309.659C297.986 327.369 277.908 340.285 253.276 348.912C245.849 351.513 238.051 353.196 230.696 355.95Z" fill="#FEFEFC"/>
<path d="M167.394 288.386C186.37 287.977 205.304 291.676 223.876 295.078C216.072 299.044 208.22 302.95 200.814 307.637C179.338 321.23 158.716 340.36 142.588 359.966C134.538 369.751 127.278 380.227 119.849 390.485C113.222 399.858 107.079 409.91 101.774 420.082C92.6916 383.795 90.2562 351.781 93.2947 314.538C98.8452 311.228 103.832 306.972 109.375 303.598C127.333 292.665 146.688 289.2 167.394 288.386Z" fill="#A2110B"/>
<path d="M335.058 123.919C340.069 120.742 344.622 116.584 349.375 113.01C362.213 103.356 376.348 93.4124 391.286 87.2749C382.229 111.101 366.892 131.179 351.225 150.993C341.084 164.006 330.618 176.763 319.836 189.251L306.939 204.573C304.265 207.689 301.17 210.76 298.79 214.091C293.72 217.167 258.92 261.953 253.657 269.389C248.419 276.791 243.665 284.56 239.07 292.373C231.809 291.878 224.483 289.609 217.453 287.809C222.458 271.14 230.772 255.078 239.477 240.062C259.574 205.394 283.757 174.692 311.665 145.985C319.152 138.284 327.419 131.441 335.058 123.919Z" fill="#FABDB0"/>
<path d="M411.118 612.989C411.835 613.599 411.986 613.764 412.321 614.654C415.738 623.744 407.852 640.504 403.904 648.814C410.343 656.984 415.08 666.889 419.981 676.039C426.067 687.399 432.568 698.509 437.942 710.239C443.082 721.459 447.244 733.419 451.923 744.874C455.813 754.404 458.633 764.894 463.668 773.884C464.043 769.089 463.088 764.749 462.033 760.094C473.658 751.769 482.748 742.294 492.033 731.544C496.398 738.264 499.613 746.189 502.698 753.574C497.448 761.059 490.233 768.029 483.493 774.204C442.131 812.124 384.583 830.534 328.979 828.134C327.782 823.304 326.876 818.364 325.852 813.489L323.717 801.209C345.084 807.559 375.407 800.924 396.489 794.534C402.754 792.634 409.153 789.859 415.304 788.129C416.379 787.829 417.235 787.659 418.316 788.029C422.42 792.404 423.93 801.149 426.625 806.639L426.964 807.319C424.27 771.434 386.3 704.124 366.006 674.549C354.813 677.924 344.817 680.499 333.005 680.724C319.308 680.984 307.703 678.639 297.614 668.954C318.308 666.159 336.608 658.294 355.467 649.814C364.623 645.699 374.015 641.534 382.504 636.134C392.736 629.629 402.393 621.394 411.118 612.989Z" fill="#FEFEFC"/>
<path d="M434.134 743.799C437.059 743.904 439.551 744.154 442.224 745.429C444.342 746.44 446.23 747.874 447.772 749.643C449.313 751.412 450.476 753.478 451.188 755.714C451.828 757.742 452.038 759.88 451.807 761.993C451.575 764.106 450.906 766.148 449.843 767.989C447.221 772.499 443.187 774.394 438.332 775.569C434.272 775.939 430.45 775.614 426.942 773.344C425.256 772.262 423.805 770.85 422.677 769.194C421.55 767.537 420.768 765.67 420.379 763.704C419.487 759.084 420.844 753.874 423.568 750.079C426.285 746.289 429.646 744.599 434.134 743.799Z" fill="black"/>
<path d="M428.252 765.134C427.408 763.889 426.788 762.794 426.4 761.324C425.705 758.689 425.821 755.999 427.245 753.634C429.126 750.504 431.626 749.564 435.014 748.699C438.516 751.649 440.886 754.674 441.249 759.469C441.388 761.304 441.048 763.469 439.766 764.879C438.291 766.504 435.99 766.794 433.927 766.644C431.888 766.489 430.135 765.889 428.252 765.134Z" fill="#FEFEFC"/>
<path d="M413.252 703.224C416.448 702.984 419.512 702.724 422.63 703.699C424.878 704.407 426.961 705.558 428.756 707.085C430.551 708.612 432.021 710.484 433.08 712.589C434.988 716.409 435.367 720.874 433.898 724.904C432.181 729.614 428.467 732.394 424.047 734.374C420.455 735.344 417.018 735.479 413.491 734.129C409.392 732.564 406.135 729.254 404.355 725.274C402.446 721.004 402.268 715.949 404.134 711.629C405.964 707.399 409.077 704.914 413.252 703.224Z" fill="black"/>
<path d="M416.975 707.694C418.483 707.724 419.999 707.829 421.386 708.474C423.843 709.619 425.593 711.914 426.447 714.444C427.007 716.062 427.224 717.778 427.085 719.484C426.946 721.19 426.453 722.849 425.639 724.354C424.154 727.054 422.001 728.034 419.166 728.914C417.667 728.804 415.988 728.634 414.588 728.059C412.133 727.059 410.074 724.874 409.071 722.439C408.493 721.048 408.215 719.551 408.253 718.046C408.292 716.54 408.646 715.059 409.294 713.699C410.928 710.309 413.56 708.874 416.975 707.694Z" fill="#FEFEFC"/>
<path d="M392.639 662.74C396.062 662.455 399.209 662.829 402.354 664.264C407.348 666.58 411.221 670.78 413.126 675.944C414.462 679.614 414.38 683.664 412.699 687.209C410.406 692.044 406.301 694.535 401.473 696.295C397.465 696.84 393.679 696.729 389.946 695.039C385.316 692.944 381.548 688.799 379.97 683.959C378.55 679.609 378.859 674.529 381.124 670.514C383.679 665.979 387.827 663.995 392.639 662.74Z" fill="black"/>
<path d="M393.516 667.225C393.754 667.26 393.995 667.29 394.23 667.34C398.47 668.225 402.075 670.035 404.286 673.9C405.752 676.47 406.165 679.655 405.271 682.485C403.969 686.605 400.825 688.67 397.242 690.62C394.767 690.8 392.524 690.865 390.287 689.625C387.308 687.975 385.295 684.99 384.505 681.72C383.7 678.385 384.034 674.725 385.967 671.825C387.845 669.005 390.321 667.93 393.516 667.225Z" fill="#FEFEFC"/>
<path d="M205.257 285.44C216.215 246.424 230.68 208.963 251.443 174.017C284.669 118.095 337.869 67.7781 394.441 36.1286C408.34 28.3531 422.756 22.0866 437.495 16.1341C442.63 14.0601 447.914 11.5446 453.223 10.0161C442.43 65.5311 401.598 121.933 364.884 163.932C347.204 184.157 328.169 203.379 309.857 223.045C287.66 246.884 270.394 263.346 252.592 291.268C249.556 291.03 246.501 290.7 243.455 290.68C255.865 267.629 274.31 247.22 290.985 227.217C295.51 221.789 300.477 216.422 304.658 210.737C308.46 208.177 314.472 199.917 317.631 196.214C338.437 171.821 359.815 147.008 377.214 120.022C380.743 114.549 395.618 89.5361 394.472 84.2511C394.3 84.2046 394.134 84.1346 393.957 84.1116C391.03 83.7291 385.928 87.0116 383.337 88.3901C364.667 98.3216 347.738 110.196 331.759 124.023C293.458 154.957 255.462 204.533 232.096 247.766C225.331 260.282 218.634 273.668 215.045 287.499C211.786 286.858 208.46 286.315 205.257 285.44Z" fill="#FEFEFC"/>
<path d="M116.942 28.5059L117.56 28.7099C119.67 31.6804 120.474 47.3839 120.885 51.4729C122.015 62.7219 122.964 73.9294 122.964 85.2429C122.966 138.897 109.466 191.978 98.0327 244.076C94.0162 262.377 89.7212 280.906 86.9027 299.429C79.8203 348.268 84.8394 398.099 101.519 444.544C104.717 453.289 107.776 462.644 113.333 470.199C113.088 459.144 105.814 437.127 103.114 425.249C124.441 395.437 140.902 367.328 167.943 341.811C186.648 324.16 207.375 309.055 231.727 300.206C236.547 298.454 242.813 296.169 248.017 296.462C258.279 297.042 273.793 310.402 280.512 317.577C259.193 323.183 240.952 332.802 222.947 345.254C180.347 375.149 144.981 415.555 127.361 464.989C124.826 472.104 122.458 479.264 120.761 486.629C119.282 493.044 118.609 500.469 116.095 506.524C115.066 507.379 114.521 507.484 113.169 507.404C103.778 506.879 93.8172 500.534 87.6957 493.669C80.8342 485.974 79.2507 480.069 79.7822 469.839C84.4072 472.949 88.2902 475.184 93.7062 476.569C88.7477 468.779 81.7032 461.994 75.8272 454.844C24.5662 392.446 12.1487 304.68 19.8597 226.505C25.6202 168.099 49.7132 108.304 85.5857 61.8849C94.9042 49.8259 105.142 38.2034 116.942 28.5059Z" fill="#FEFEFC"/>
<path d="M94.8388 103.957C97.4343 105.851 96.8913 127.573 96.9113 132.268C97.0938 175.899 89.1278 218.816 82.5448 261.768C80.2773 276.565 77.8638 291.531 76.4863 306.435C73.6378 337.255 74.0393 369.472 80.0248 399.906C82.6662 413.112 86.3234 426.094 90.9638 438.736C93.8533 446.65 97.3978 454.445 99.8233 462.505L100.051 463.275C97.9043 460.69 96.0548 457.895 93.8343 455.355C90.0888 451.07 85.9728 447.1 82.1878 442.83C41.7743 394.182 32.6218 332.723 37.5528 271.354C41.7041 220.461 56.2679 170.964 80.3408 125.932C84.1718 118.917 88.7918 109.097 94.8388 103.957Z" fill="black"/>
<path d="M93.0015 110.022C94.7435 112.619 93.9546 121.69 93.9631 125.013C94.0751 166.821 87.9661 207.217 81.5946 248.376C77.4901 274.887 72.7926 301.641 72.2191 328.515C71.3201 370.61 76.3121 410.647 92.1726 449.929C87.3411 444.024 81.9986 438.681 77.4791 432.498C62.0506 409.243 50.4456 386.106 44.9436 358.545C29.2806 280.085 48.3736 176.829 93.0015 110.022Z" fill="#FABDB0"/>
<path d="M317.921 344.932C350.623 362.265 375.709 380.329 400.506 407.826C407.893 416.017 417.29 430.13 424.961 436.556C429.183 440.093 431.4 440.895 436.776 440.021C444.283 434.497 450.033 425.638 454.748 417.676C454.768 427.047 454.918 436.446 454.678 445.815C454.548 450.85 452.898 461.595 453.803 465.585C454.978 465.515 455.478 464.885 456.208 464.005C462.818 456.07 468.903 443.985 473.248 434.6C473.118 501.8 450.413 564.105 402.412 611.86C395.123 619.11 387.396 625.88 378.744 631.485C370.613 636.745 362.014 640.68 353.104 644.42C319.081 658.695 282.43 664.9 245.615 664.78C215.598 664.685 168.93 656.53 142.761 641.09C159.819 643.88 179.206 644.815 195.537 638.19L194.781 638.15C188.019 637.84 181.171 638.82 174.408 639.1C158.05 639.775 132.434 639.41 118.996 629.39C135.714 633.18 151.797 634.725 168.916 633.315C172.468 633.025 177.287 632.95 180.375 630.91C180.567 630.785 180.749 630.645 180.936 630.51L180.895 629.9C174.655 629.66 168.329 630.65 162.068 630.67C145.59 630.725 117.63 628.885 104.276 619.035C118.339 618.49 130.603 617.265 143.763 611.8C145.371 611.13 148.681 610.025 149.855 608.78C150.078 608.545 150.233 608.255 150.422 607.99C148.424 606.665 124.935 601.45 121.241 600.71C132.643 594.625 141.207 585.91 144.999 573.35C147.92 563.675 145.646 554.69 143.838 545.055C140.585 528.141 137.028 511.286 133.171 494.5C132.191 490.265 129.48 485.805 129.221 481.52C128.872 475.76 132.414 468.45 134.602 463.205C145.828 436.012 161.858 411.064 181.925 389.553C209.086 399.275 242.599 398.772 268.837 386.362C280.523 380.835 289.836 373.638 299.549 365.299C302.001 361.722 304.703 359.105 308.005 356.362C311.344 352.581 314.649 348.771 317.921 344.932Z" fill="#FEFEFC"/>
<path d="M419.917 449.959C420.722 450.834 420.785 450.949 420.994 452.119C419.76 455.639 408.035 466.444 404.678 469.104L404.082 468.669C404.786 464.329 416.109 452.934 419.917 449.959Z" fill="black"/>
<path d="M382.459 500.534C383.896 501.049 400.286 514.129 400.926 515.169C400.77 515.179 400.614 515.194 400.458 515.204C395.682 515.524 391.324 512.449 387.863 509.384C385.05 506.894 382.681 504.439 382.459 500.534Z" fill="black"/>
<path d="M230.464 571.754C232.033 571.524 233.581 571.15 234.933 572.15C233.968 574.12 219.001 580.92 215.507 583.22C214.429 583.95 213.871 584.465 212.514 584.415L212.013 583.61C212.167 582.94 212.153 582.85 212.508 582.155C215.232 576.82 225.098 573.419 230.464 571.754Z" fill="black"/>
<path d="M200.801 562.14C205.206 562.555 209.947 564.68 214.285 565.75C218.28 566.735 226.755 567.18 229.932 569.225L229.963 570.605C229.049 570.94 228.114 571.18 227.137 571.24C221.186 571.615 205.997 568.235 201.473 564.155C200.657 563.42 200.879 563.175 200.801 562.14Z" fill="black"/>
<path d="M308.006 356.362C313.261 354.484 317.901 354.168 323.1 356.525C325.597 357.656 330.298 360.289 331.195 363.12C331.563 364.28 331.214 364.621 330.623 365.554C327.086 365.604 323.579 365.191 320.053 365.253C314.233 365.354 304.802 368.116 299.55 365.298C302.001 361.721 304.704 359.105 308.006 356.362Z" fill="black"/>
<path d="M175.407 417.224C176.35 417.116 177.353 417.045 178.301 417.103C180.109 417.212 181.357 418.019 182.537 419.317C182.748 419.876 182.968 420.367 183.034 420.976C183.451 424.868 173.83 433.331 171.372 436.573C163.852 446.489 162.3 456.719 160.556 468.674L159.661 473.654C155.998 461.289 155.169 445.994 160.042 433.817C163.107 426.154 167.722 420.532 175.407 417.224Z" fill="black"/>
<path d="M429.802 462.219C433.008 462.039 435.631 462.154 438.518 463.724C440.873 464.999 442.39 467.059 443.035 469.649C444.628 476.054 442.19 483.889 438.733 489.359C433.011 498.409 423.951 504.524 413.59 506.869C410.609 506.934 408.277 506.579 405.599 505.184C402.802 503.729 400.763 501.799 399.915 498.679C398.402 493.114 400.546 486.934 403.425 482.159C409.273 472.469 418.787 464.919 429.802 462.219Z" fill="black"/>
<path d="M429.705 465.764C432.296 465.534 434.638 465.819 436.851 467.289C438.568 468.429 439.415 469.979 439.749 471.989C440.656 477.444 438.413 483.924 435.352 488.329C429.932 496.129 421.574 501.954 412.209 503.614C410.097 503.344 408.253 502.939 406.388 501.854C404.25 500.609 402.58 499.024 402.018 496.539C400.937 491.754 403.925 486.279 406.533 482.409C411.793 474.599 420.286 467.539 429.705 465.764Z" fill="#FABDB0"/>
<path d="M252.516 580.319C257.407 579.614 263.862 580.394 267.969 583.219C270.804 585.169 272.438 588.174 272.892 591.559C273.527 596.284 271.673 600.519 268.767 604.159C261.597 613.129 250.464 617.629 239.328 618.924C234.346 619.384 227.774 618.614 223.577 615.739C221.06 614.014 219.507 611.414 219.063 608.399C218.343 603.514 220.403 598.799 223.372 595.019C230.288 586.224 241.746 581.789 252.516 580.319Z" fill="black"/>
<path d="M250.519 583.254C255.504 582.909 261.077 582.609 265.505 585.369C267.506 586.614 268.82 588.434 269.288 590.754C270.08 594.669 268.514 598.574 266.212 601.684C260.202 609.809 250.592 614.034 240.855 615.499C235.891 615.849 229.83 616.169 225.449 613.439C223.703 612.349 222.61 610.709 222.186 608.704C221.47 605.319 222.695 601.699 224.526 598.869C230.177 590.139 240.678 585.254 250.519 583.254Z" fill="#FABDB0"/>
<path d="M360.692 500.774C362.046 500.844 363.243 501.029 364.313 501.949C365.462 502.944 365.989 504.014 366.188 505.484C367.265 513.474 360.512 524.514 355.996 530.639C357.865 535.549 359.113 540.644 360.451 545.714C370.823 538.839 379.231 529.839 383.795 518.219C381.104 517.544 378.419 517.104 376.352 515.109C376.916 514.414 376.597 514.534 377.278 514.439C380.659 513.964 386.434 514.044 389.019 516.644C390.041 517.669 390.071 518.049 390.158 519.399L389.432 519.949L387.472 519.469C383.507 529.104 381.763 531.399 375.292 539.499C375.139 562.544 377.003 600.399 360.732 618.339C357.356 622.059 352.886 625.079 347.71 625.169C340.058 625.309 333.775 619.969 328.654 614.914C316.113 601.704 308.511 585.759 300.514 569.629C298.441 569.909 295.456 570.274 293.682 568.984L293.782 567.944C294.891 566.839 295.531 566.704 297.018 566.324C298.628 565.914 299.933 565.529 301.339 564.589C307.262 560.634 309.072 552.144 310.258 545.589C311.021 547.294 311.803 549.079 311.99 550.959C312.583 556.934 309.261 562.034 305.605 566.399C310.928 565.249 316.336 564.514 321.636 563.229C334.355 560.144 344.973 554.689 356.157 548.129C354.815 542.937 353.349 537.777 351.76 532.654C345.301 532.884 337.097 532.429 331.233 529.469C329.582 528.634 327.837 527.249 327.359 525.364C326.801 523.164 327.474 521.179 328.692 519.344C333.959 511.414 351.314 502.464 360.692 500.774Z" fill="black"/>
<path d="M370.104 543.154C371.427 544.809 370.585 551.169 370.406 553.304C370.066 557.359 369.735 564.919 366.412 567.709C364.838 567.924 364.471 567.644 363.049 567.024C358.713 562.454 360.337 556.054 360.265 550.189L370.104 543.154Z" fill="#FEFEFC"/>
<path d="M355.138 553.719L355.56 554.579C355.292 561.504 355.584 573.174 351.287 578.824C350.406 579.984 349.178 580.869 347.663 580.879C344.018 580.909 340.6 576.614 338.177 574.324C335.237 571.369 332.34 568.369 329.128 565.699C338.463 562.819 346.717 558.574 355.138 553.719Z" fill="#FEFEFC"/>
<path d="M330.466 597.725C333.671 597.635 336.497 597.915 339.537 599C345.167 601.01 352.632 606.445 355.179 612.135C355.79 613.5 356.033 615.06 355.328 616.455C354.106 618.87 350.826 619.79 348.468 620.57C347.543 620.625 346.61 620.68 345.683 620.635C338.569 620.295 328.722 610.635 324.491 605.505C323.409 604.195 322.898 603.335 323.046 601.63C324.762 599.43 327.903 598.53 330.466 597.725Z" fill="#FABDB0"/>
<path d="M327.818 371.244C336.566 370.532 344.657 372.81 352.184 377.242C372.283 389.079 390.242 414.831 396.03 437.145C399.747 451.474 399.397 467.849 391.557 480.814C385.944 490.094 376.426 494.889 366.199 497.419C364.6 496.239 362.923 494.989 361.13 494.129C354.3 490.849 347.412 493.269 340.75 495.534C332.895 498.879 326.388 503.609 319.381 508.419C319.476 508.239 319.568 508.049 319.665 507.869C324.968 497.769 335.752 491.784 346.316 488.619C326.352 473.429 310.848 451.674 305.012 427.002C301.849 413.626 302.156 395.358 309.72 383.4C314.111 376.458 319.948 372.986 327.818 371.244Z" fill="black"/>
<path d="M329.242 378.749C336.48 378.162 344.227 381.737 350.291 385.369C370.356 397.385 386.2 419.418 391.87 442.064C394.816 453.824 394.366 467.984 387.864 478.559C382.83 486.749 374.498 491.449 365.362 493.644L359.205 489.214C360.206 488.299 361.257 487.374 362.157 486.359C368.188 479.549 368.813 470.624 368.196 462.024C367.931 457.284 366.326 452.669 364.881 448.184C363.514 449.554 362.289 450.824 360.385 451.379C357.816 452.129 355.268 451.924 352.946 450.559C350.696 449.229 349.001 446.884 348.393 444.349C347.832 442.009 348.104 439.568 349.395 437.512C351.357 434.388 354.221 433.535 357.607 432.727C353.183 426.862 348.463 421.103 342.647 416.554C337.929 412.863 331.839 409.735 325.678 410.651C322.509 411.122 319.796 412.714 317.946 415.344C312.46 423.148 314.227 435.049 315.58 443.849C313.183 439.112 311.557 433.833 310.403 428.664C307.618 416.19 306.831 400.057 314.196 388.888C317.838 383.365 322.828 380.088 329.242 378.749Z" fill="#FEFEFC"/>
<path d="M214.385 442.764C233.153 440.946 250.748 448.689 265.58 459.639C285.296 474.194 301.922 497.289 305.562 521.854C307.482 534.809 306.691 548.239 298.587 559.054C291.151 568.974 280.972 571.474 269.207 573.089C250.668 574.644 233.56 571.314 217.585 561.489C207.976 555.562 199.635 547.793 193.042 538.628C186.449 529.463 181.734 519.084 179.17 508.089C175.84 494.004 175.753 476.389 183.734 463.754C190.901 452.409 201.476 445.689 214.385 442.764Z" fill="black"/>
<path d="M216.428 450.285C233.256 448.86 248.75 454 262.549 463.505C281.565 476.605 297.567 498.385 301.711 521.385C303.676 532.295 302.821 546.075 296.14 555.37C290.474 563.245 279.856 565.69 270.819 567.105C252.741 568.855 233.584 565.725 218.231 555.63C202.162 545.065 189.648 526.03 185.875 507.215C183.291 494.335 184.197 476.98 191.822 465.805C197.637 457.28 206.395 452.11 216.428 450.285Z" fill="#FEFEFC"/>
<path d="M217.751 475.285C220.16 475.22 222.855 475.63 225.185 476.25C236.745 479.32 247.35 489.02 253.184 499.225C250.721 500.075 248.508 500.89 246.278 502.285C245.43 504.11 244.598 506.065 244.397 508.09C244.095 511.14 245.11 514.575 247.082 516.925C248.727 518.89 251.07 520.17 253.633 520.36C257.741 520.66 260.132 518.66 263.043 516.175C266.005 524.39 267.93 533.13 267.072 541.91C266.371 549.085 263.837 554.03 258.31 558.59C256.619 559.41 254.94 560.255 253.095 560.67C244.529 562.61 235.05 558.46 228.012 553.795C214.377 544.76 202.36 528.005 199.097 511.885C197.298 502.995 196.987 491.43 202.33 483.665C206.131 478.145 211.453 476.315 217.751 475.285Z" fill="black"/>
</svg>
