<?xml version="1.0" encoding="UTF-8"?>
<svg id="Layer_2" data-name="Layer 2" xmlns="http://www.w3.org/2000/svg" viewBox="0 0 883.95 1008.93">
  <defs>
    <style>
      .cls-1 {
        fill: #812942;
      }

      .cls-2 {
        fill: #fad8d2;
      }

      .cls-3 {
        fill: #5e102d;
      }

      .cls-4 {
        fill: #f45765;
      }

      .cls-5 {
        fill: #fefefe;
      }
    </style>
  </defs>
  <g id="Layer_1-2" data-name="Layer 1">
    <g>
      <path class="cls-3" d="M433.2,4.33c10.85,2.26,21.57,5.09,32.12,8.48,69.6,22.55,144.32,67.43,191.81,123.67,7,8.29,15.22,17.25,20.17,26.95,33.26,6.56,69.33,19.53,95.92,41.14,12.81,10.42,25.9,24.84,27.57,42.03,1.41,14.53-4.23,29.16-13.5,40.18-13.29,15.81-31.08,23.95-51.4,25.74,17.13,14.21,37.94,33.88,45.7,55.23,2.18,5.98,3.6,13.42.65,19.36-1.77,3.56-4.9,6.25-8.67,7.49-7.66,2.45-15.19-1.66-21.7-5.24,8.15,23.67,9.74,46.56,8.94,71.37,12.91-.9,23.99-.6,34.77,7.41,8.71,6.47,13.45,16.01,14.99,26.61,2.54,17.5-1.53,35.42-12.16,49.5,20.75,14.91,36.86,32.51,50.11,54.38,20.54,33.93,34.5,74.43,35.26,114.32.11,5.68.63,13.2-.9,18.62-.2.69-.25,1.2-.95,1.52-4.75,2.19-22.82-4.94-28.07-7.11,3.65,33.26,3.29,62.32-5.93,94.7-2.7,9.48-6.09,19.68-11.32,28.09-1.02,1.64-2.06,3.2-4.04,3.62-4.62-1.53-18.82-16-23.86-20.03-8.82,37.44-21,67.94-43.58,99.42-19.54,27.24-43.55,50.4-72.27,67.82-6.04,3.66-12.63,8.17-19.69,9.33-6.3-6.78-8.49-12.71-16.63-18.76-16.19-12.05-37.84-17.74-56.67-24.25-42.43-14.67-79.33-29.44-115.02-57.27-7.8-6.09-15.55-12.41-22.46-19.5-5.07-5.22-9.62-10.98-14.18-16.63,4.87,12.53,11,24.89,14.74,37.81-4.6-1.38-9.08-3.55-13.46-5.53-23.38-10.58-43.89-25.41-63.21-42.19-7.83-6.9-14.83-14.46-21.78-22.21-19.43-21.68-34.54-43.19-47.73-69.3-3-5.93-5.21-12.13-8-18.14-.39,15.35,1.61,30.56,3.97,45.7-25.92-18.14-45.88-43.56-57.35-73.05-12.86-32.56-14-68.58-3.23-101.88,3.23-10.03,7.73-19.63,11.96-29.28-19.74-2.69-36.95-10.03-51.31-24.16-19.77-19.46-31.36-47.81-31.35-75.51,0-25.42,8.66-49.3,26.73-67.35-11.85-9.27-20.78-22.11-22.75-37.24-4.4-33.78,29.25-68.31,48.35-93.07-3.77-10.26-3.44-22.23-3.72-33.01-7.7,5.75-15.91,10.97-23.78,16.5-11.1,7.75-21.9,15.91-32.4,24.45-9.16,7.42-18.2,14.97-27.13,22.67-6.62,5.77-12.9,12.27-20.33,16.99,2.92,3.8,5.81,7.65,8.26,11.77,9.8,16.86,12.53,36.92,7.58,55.79-4.83,18.68-17.33,35.82-34.05,45.61-16.54,9.58-36.19,12.28-54.71,7.51-18.51-5.07-34.22-17.35-43.61-34.09-10.51-18.59-12.44-37.52-6.68-58.01,5.51-19.58,19.69-36.46,37.41-46.22,17.83-9.82,34.09-9.92,53.06-4.43,24.68-89.33,77.08-178.24,142.63-243.64,15.93-15.89,33.5-31.56,52.18-44.19C335.91,2.71,376.73-6.49,433.2,4.33Z"/>
      <path class="cls-5" d="M655.66,616.8c10.39,1.97,20.08,7.09,29.6,11.51-17.73,4.84-36.08,7.05-54.45,6.57-9.08.06-18.14-1.05-27.23-.76,6.11-3.83,11.41-8.58,17.27-12.72,9.4-6.64,23.94-6.45,34.8-4.6Z"/>
      <path class="cls-5" d="M648.81,581.43c12.53,7.82,23.74,11.74,38.51,12.58,1.09,1.37,2.22,2.7,3.41,3.99,21.18,22.66,47.05,29.6,76.98,30.78-7.63,1.3-15.3,2.32-23.01,3.06-14.5.99-29.03-.57-42.79-5.39-27.46-9.62-40.09-23.41-71.45-15.93,7.49-8.52,13.3-18.98,18.35-29.09Z"/>
      <path class="cls-2" d="M776.31,471.09c3.5.47,7.27,2.04,10.17,4.02,8.2,5.57,12.73,16.37,14.42,25.83,2.51,14.05-.58,27.23-8.71,38.8-12.37-7.55-24.62-15.81-36.35-24.32l-4.42-3.44c2.12-1.88,4.57-3.47,7.02-4.89,11.2-6.51,19.98-5.46,31.92-2.24-3.32-3.39-6.82-5.88-11.46-7.18-8.49-2.37-17.02.18-24.44,4.35,2.42-10.07,3.78-20.48,5.31-30.72,5.65-1.09,10.87-1.08,16.54-.21Z"/>
      <path class="cls-5" d="M823.05,594.41l.68.34c-.17,1.14-.78,1.73-1.52,2.55-12.83,14.3-35.31,24.81-54.59,25.72-25.3,1.2-54.16-8.98-72.98-25.93l-2.71-2.69c1.74-.12,3.5-.25,5.23-.48,14.93-2.01,26.4-10.32,35.38-22,17.47,14.78,39.59,22.94,62.47,23.06,9.36.12,18.66-.99,28.02-.57Z"/>
      <path class="cls-1" d="M689.92,294.19c23.99,5.11,43.18,22.19,59.8,39.4,10.82,11.2,28.52,31.01,27.76,47.36-.1,2.22-.84,4.25-2.6,5.69-3.09,2.52-6.86,2.26-10.57,1.94-14.72-7.25-23.49-24.57-35.52-35.89-8.3-7.81-16.93-15.5-26.38-21.91-7.39-5.01-16.69-8.9-23.05-15.18-2.67-2.64-4.43-6.36-4.28-10.16.14-3.31,1.71-6.61,4.24-8.76,3.37-2.86,6.41-2.87,10.6-2.49Z"/>
      <path class="cls-4" d="M600.27,673.36s.09,0,.13.01c17.89,3.08,30.22,9.89,41.01,24.58-32.35,5.95-59.24,14.73-89.67,26.97-7.09,2.75-16.31,7.24-24.11,6.41-2.58-.27-5.16-1-6.74-3.2-2.57-3.61-2.25-9.26-1.65-13.46,1.7-11.96,6.83-20.42,16.49-27.68,18.58-13.96,42.16-16.74,64.54-13.64Z"/>
      <path class="cls-1" d="M690.47,630.59c3.3.86,6.46,1.98,9.66,3.14-1.45,4.07-2.79,8.14-3.77,12.36-4,17.41-.72,34.39,8.69,49.46-20.52-1.65-38.92-.5-59.29,2.2-3.76-8.27-8.16-15.15-15.57-20.68-16.77-12.54-40.69-14.1-60.69-11.27-7.94,1.54-15.49,3.86-22.99,6.85-2.72,1.08-8.52,5.3-11.13,4.98-.02-.25-.1-.51-.07-.76.64-5.05,12.36-17,16.77-19.79,6.58-4.17,15.68-6.03,23.01-8.85,5.7-2.2,11.25-4.99,17.08-6.84,2.56-.82,5.24-1.45,7.92-1.71,6.74-.66,14.28.63,21.05,1.08,19.74,1.29,53.53,2.2,69.32-10.17Z"/>
      <path class="cls-1" d="M545.14,277.43c9.11,1.5,18.71,4.29,25.92,10.34,4.29,3.6,7.05,7.99,7.47,13.66.28,3.92-.35,9.54-3.2,12.5-.82.85-1.66,1.4-2.82,1.67-4.38,1.02-13.74-2.07-18.52-2.73-3.04-.42-6.17-.5-9.23-.44-9.36.18-18.7,2.41-27.66,5.01-33.61,9.77-48.58,25.04-71.99,49.42-4.26,3.9-8.82,7.91-14.96,7.96-2.89.02-6.37-.74-8.37-2.99-2.79-3.12-3.07-9.79-2.69-13.8,1.83-19.55,20.33-40.33,34.82-52.12,26.63-21.64,56.82-32.08,91.24-28.49Z"/>
      <path class="cls-5" d="M353.13,346.26c3.8,4.37,5.95,12.87,7.7,18.43,16.84,53.4,5.71,101.89-19.48,150.19-4.99-29.42-13.14-52.21-32.5-75.38,4.62.32,8.52.21,13.02-.97,1.94-.65,3.77-1.84,5.56-2.83-15.52,1.58-19.91.12-32.5-9.23,8.14-.25,15.18-1.1,22.01-5.87,10.09-7.06,14.17-19.52,16.28-31.06-1.2,3.24-2.5,6.46-4.08,9.54-4.63,9.02-11.39,17.69-21.48,20.75-9.63,2.91-18.35.13-26.91-4.39,15.58-24.69,48.44-52.62,72.38-69.18Z"/>
      <path class="cls-5" d="M688.79,357.96c1.36.28,2.7.76,3.99,1.25,12.92,4.88,21.88,19.13,27.18,31.14,14.81,33.47,15.4,80.47,2.2,114.56-.98-.59-1.96-1.17-2.98-1.67-10.94-5.39-23.52-1.53-34.38,1.95-6.54,2.45-12.87,5.46-19.36,8.02-.19-.25-.4-.49-.59-.74-17.92-23.37-21.24-72.96-16.87-101.64,2.47-16.19,8.28-38.77,22.52-48.86,5.73-4.06,11.47-5.15,18.29-4Z"/>
      <path class="cls-3" d="M686.16,402.08c1.12.26,2.18.61,3.21,1.12,5.23,2.6,8.34,8.36,10.09,13.7,4.17,12.77,3.37,29.9-2.93,41.89-1.59,3.03-3.88,6.16-7.34,7.13-2.65.74-4.72-.22-7.02-1.45-2.67-2.27-4.47-4.83-5.86-8.04-3.67-8.42-5.17-22.82-1.75-31.38,1.24.03,2.43-.02,3.66-.16,2.29-.26,4.95-.85,6.39-2.83.95-1.31,1.09-2.71.85-4.27-.74-4.78-3-7-6.6-9.74,2.08-3.12,3.63-4.91,7.31-5.98Z"/>
      <path class="cls-5" d="M620.13,531.71c2.03,2.34,1.05,4.54,2.31,6.95,1.93,16.03,12.14,29.45,23.55,40.19-6.41,12.29-16.26,23.84-26.46,33.2-23.52,21.59-63.07,36.07-94.62,39.53-11.58,1.27-23.4.98-35.02.49,3.64-.73,7.27-1.48,10.89-2.25,34.17-7.35,69.66-23.2,94.61-48.03,3.56-3.54,7.76-7.33,10.48-11.54l-.81.99c-.56-.52-3.69,2.86-4.41,3.53-6.95,6.54-14.08,12.42-22.07,17.65-24.24,15.9-47.71,25.38-75.69,32.61-8.04,2.08-17.4,4.66-25.72,4.55-18.25-.24-58.93-18.46-71.66-31.33,15.78.98,31.52-.33,47.08-3,64.57-11.09,114.23-48.42,167.54-83.54Z"/>
      <path class="cls-5" d="M83.86,328.02c14.28,2.23,27.9,11.37,36.74,22.6,10.73,13.63,14.67,31.56,12.58,48.62-1.92,16.71-10.51,31.93-23.82,42.22-13.89,10.8-29.75,15.06-47.12,12.97-15.75-3.39-29.62-10.48-39.58-23.48-10.07-13.23-14.53-29.89-12.41-46.38,2.33-17.64,12.68-34.72,26.86-45.36,13.77-10.33,29.86-13.61,46.75-11.19Z"/>
      <path class="cls-3" d="M42.32,399.8c.58.31,1.15.63,1.57,1.14,2.24,2.68,4.6,10.23,6.38,13.96,2.5,5.22,6.26,10.58,8.23,15.94.23.62.22,1.14.22,1.79-3.65-2.23-6.37-5-8.75-8.51-3.59-5.3-8.88-17.92-7.66-24.32Z"/>
      <path class="cls-3" d="M24.65,385.18c.57.28,1.03.64,1.55,1.01,2.63,6.41,3.9,13.63,5.87,20.3,1.55,5.25,3.74,10.35,5.14,15.62.26,1,.32,1.7.25,2.71-2.19-1.1-3.75-3.16-5.13-5.14-5.62-8.03-9.29-24.98-7.67-34.5Z"/>
      <path class="cls-5" d="M676.97,173.33c29.58,6.84,61.06,18.3,85.45,36.8,11.38,8.64,24.13,20.6,26.1,35.54,1.51,11.46-2.79,22.48-9.74,31.49-11.98,15.52-30.33,23.5-49.39,25.9-2.21-10.37-5.5-20.56-12.46-28.77,4.74,2.04,21.7,9.18,26.06,8.86,1.15-.08,1.26-.27,1.98-1.08-.02-1.76-.76-2.83-1.86-4.15-15.74-18.78-69.29-24.54-93.04-26.72-38.94-3.56-82.64.29-120.93,8.05-14.41,2.92-28.9,5.67-43.04,9.74-61.31,18.22-118.33,48.58-167.67,89.28-18.48,15.38-35.65,32.61-48.2,53.25-20.54-3.78-33.48-2.18-51.92,8.27-5.95-4.49-11.9-9.7-15.97-16.02-5.71-8.86-6.53-19.56-4.24-29.67,8.26-36.41,55.1-82.3,83.41-105.47,12.89-10.36,26.34-20.02,40.27-28.94,99.57-63.27,239.45-92.2,355.2-66.35Z"/>
      <path class="cls-4" d="M434.68,17.61c51.56,10.74,107.98,38.13,150.1,69.56,9.36,6.99,18.19,14.8,26.94,22.52,16.03,14.14,33.18,31.51,45.4,49.08-6.55-.45-13.21-1.86-19.73-2.71-9.83-1.29-19.82-2.16-29.72-2.76-27.75-1.69-55.44.22-82.94,3.82-21.13,2.77-42.7,6.32-63.39,11.44-51.69,12.8-106.41,36.06-150.96,65.36-14.57,9.58-29.08,20.09-42.34,31.4-8.42,7.18-16.32,15-24.61,22.33-.57-4.75-.86-9.53-.87-14.31-.37-50.3,19.57-109.64,50.79-149.21,6.69-8.48,14.53-15.38,22.06-23.02-21.36,9.43-39.63,34.38-51.75,53.91-8.7,15.67-16.15,31.77-21.81,48.81-.64-2.33-1.27-4.66-1.7-7.03-4.03-21.97,4.7-44.26,17-62.13-9.1,7.77-14.99,18.94-18.77,30.16-5.14,15.26-6.03,31.41,1.29,46.13-1.16,3.8-2.17,7.66-3.24,11.49-2.14-1.95-3.99-3.96-5.7-6.3-6.9-9.45-10.43-22.63-8.48-34.25.02-.13.05-.26.07-.39-.15.15-.75.72-.86.87-3.98,5.66-1.89,16.89-.44,23.08,1.94,8.24,7.55,16.58,14.72,21.04-2.03,8.34-3.06,17.29-4.33,25.78-9.09,6.32-18.92,11.76-28.17,17.9-17.38,11.64-33.98,24.42-49.69,38.25-5.68,5.05-11.27,10.37-16.41,15.98-4.54,4.96-8.81,10.26-13.71,14.88l-.61.57c-7.04-6.5-13.71-11.23-22.53-15.01,30.64-89.65,85.69-183.93,155.76-248.11,13.08-11.98,26.71-23.45,41.58-33.16,47.33-30.89,81.3-37.73,137.04-25.97Z"/>
      <path class="cls-3" d="M537.61,91.7c3.93.59,7.28,2.87,10.38,5.24,5.98,4.59,17.16,14.73,18.19,22.62-.15-.05-.31-.08-.46-.13-1.7-.57-27.04-25.45-28.11-27.73Z"/>
      <path class="cls-3" d="M516.14,90.88c6.84.86,19.13,9.63,23.8,14.8,2.57,2.84,4.36,5.69,4.18,9.61-.91-.17-1.5-.39-2.31-.88-2.91-1.76-5.75-5.15-8.26-7.5-3.34-3.12-6.77-6.04-10.4-8.82-1.41-1.08-6.11-4-6.68-5.46-.22-.55-.22-1.17-.33-1.75Z"/>
      <path class="cls-2" d="M539.58,270.11c44.18-9.02,118.55-11.94,161.85,2.2,6.16,7.79,11.77,17.01,15.51,26.2-8.67-5.53-21.95-12.48-32.62-10.31-5.26,1.07-9.45,4.58-12.24,9.08-3.09,4.98-4.09,10.73-2.57,16.42.74,2.77,2.15,6.01,4.21,8.07,6.68,6.71,16.8,11.06,24.65,16.33,14.45,9.71,26.25,22.13,37.35,35.42,2.45,2.94,5.57,6.17,7.29,9.58,3.01,5.99,3.31,15.68,4.36,22.31,7.18,45.44,4.78,81.74-6.79,126.11-1.91-8.37-4.86-14.18-10.53-20.63,3.42-10.08,6.4-20.08,8.02-30.64,4.57-29.67.95-68.58-12.33-95.53-6.99-14.2-16.25-28.31-31.99-33.61-7.76-2.61-16.1-2.21-23.41,1.55-13.98,7.21-21.56,22.73-26.05,37.07-10.73,34.28-9.85,84.91,6.98,116.77,1.73,3.28,3.81,6.32,5.92,9.37-9.37,1.87-18.72.92-26.81-4.54-5.9-3.98-9.35-9.73-12.47-15.94,1.28,9.29,4.7,18.54,12.33,24.53,6.92,5.44,16.49,6.41,24.94,5.18,18.65-2.7,45.92-22.6,63.76-9.94,6.13,4.35,9.35,10.71,10.49,17.99,1.7,10.91-1.92,23.5-8.47,32.3-6.91,9.3-17.36,14.55-28.69,16.11-16.81,2.32-32.63-3.06-45.95-13.25-10.81-8.27-18-17.48-23.88-29.66-1.26-2.41-.28-4.61-2.31-6.95l1.49-1.34-.3-.47c-4.31.13-9.64,3.19-13.57,5.03-7.71,3.61-15.04,8.03-22.42,12.27-30.75,17.67-62.41,37.78-99.43,36.11-16.59-.75-33.44-6.06-48.12-13.68-29.43-15.29-51.43-38.92-87.19-41.64-7.53-.57-15.33-.29-22.61,1.86-9.79,2.9-18.68,9.4-26.19,16.14-.47.42-.94.85-1.4,1.28-2.29,2.11-4.51,4.31-6.64,6.59-8.59,9.18-14.93,19.75-22.86,29.35-23.88-1.69-41.01-10.83-56.76-28.96-15.96-18.36-23.55-43.65-21.78-67.83,1.44-19.72,9.84-38.89,25.02-51.82,11.1-9.45,25.79-14.91,40.44-13.69,18.49,1.55,38.14,13.85,49.78,27.93,15.23,18.41,23.26,42.13,27.35,65.33.47,2.69.61,7.43,3.98,7.87,2.68.34,5.46-2.43,7.11-4.19,21.85-23.32,32.43-74.14,31.15-105.64-.96-23.49-6.8-48.71-17.74-69.55,34.41-25.36,70.75-40.6,110.29-55.89-24.07,15.87-51.7,36.49-57.79,66.65-1.39,6.88-1.57,15.3,2.44,21.37,2.9,4.4,8.23,7.33,13.35,8.3,6.11,1.15,11.99-.75,16.94-4.33,6.79-4.91,12.61-11.79,18.53-17.71,18.03-18.04,36.19-30.22,61.23-36.68,7.44-1.92,14.5-3.03,22.19-2.78,13.76.44,35.38,8.2,38.83-11.8,1.34-7.79-.11-15.78-4.83-22.23-7.38-10.09-19.85-14.89-31.82-16.69-3.05-.46-6.15-.64-9.23-.76Z"/>
      <path class="cls-3" d="M416.66,400.06c.38.52.46.49.54,1.12.5,3.64-3.56,18.98-5.69,22.29l-1.17.17c-1.14-8.37,1.58-16.72,6.31-23.58Z"/>
      <path class="cls-3" d="M408.5,382.08l.35.68c-.19,2.11-7.25,26.27-8.24,28.29l-.55-.61c-.12-1.18-.25-2.36-.29-3.54-.3-8.78,2.8-18.31,8.73-24.82Z"/>
      <path class="cls-3" d="M678.64,278.19l1.01.5c-1.1,2-5.41,3.4-7.33,4.98-10.17,8.39-13.94,22.71-11.4,35.31.54,2.7,2.63,6.77,2.46,9.26l-1.17-.45c-2.45-2.88-4.01-5.76-5.01-9.41-2.44-8.88-1.32-18.98,3.33-26.97,4.13-7.1,10.36-11.14,18.11-13.22Z"/>
      <path class="cls-3" d="M580.83,272.77c1.14.52,2.17,1.06,3.19,1.78,9.29,6.59,15.37,17.34,17.25,28.5,1.84,10.93-.57,20.55-7.02,29.48-.91.85-.64.66-1.75.65-.48-1.74,4.26-14.69,4.63-18.23,1.7-16.47-6.2-30.01-16.3-42.19Z"/>
      <path class="cls-3" d="M255.09,457.78c12.04,1.6,21.87,7.45,30.41,15.92,11.02,10.92,19.15,27.16,19.25,42.84-5.99-5.27-13.16-9.83-20.55-12.87-5.17-2.13-11.36-3.74-16.72-1.36-3.22,1.44-5.35,4.03-6.47,7.33-4.78,14.08,4.04,26.23,9.91,38.09l.22.44c-6.49-4.01-11.89-9.58-15.24-16.47-3.59-7.37-4.63-15.91-1.79-23.71,2.33-6.4,6.57-10.52,12.57-13.43,1.49-.49,3.05-.94,4.6-1.19,8.98-1.44,16.99,2.21,24.1,7.32-8.75-14.25-19.4-30.4-36.33-35.48-6.61-1.99-13.59-2.13-19.75,1.36-7.21,4.09-11.38,11.74-13.46,19.51-3.58,13.34-.51,24.63,6.26,36.31-.8-.81-1.58-1.66-2.32-2.52-6.47-7.54-8.91-18.22-8.19-27.97.76-10.19,5.08-21.22,13.03-27.92,5.97-5.03,12.8-6.82,20.49-6.19Z"/>
      <path class="cls-3" d="M546.5,329.93c.3.06.6.11.89.17,19.5,4.06,34.71,18.34,45.14,34.58,19.13,29.78,23.92,71.69,16.49,105.92-3.69,17.01-9.71,32.93-21.21,46.27-3.01,3.49-6.49,6.5-9.66,9.84-5.91,6.22-10.48,11.66-17.86,16.38-12.9,8.25-26.69,11.89-41.82,8.49-11.58-2.61-23.05-7.93-29.52-18.26,12.49,11.51,26.09,16.28,43.05,15.77,14.37-1.7,26.35-8.47,37.97-16.75-12.93,5.4-26.44,7.86-40.37,5.19-21.77-4.16-38.6-17.81-50.87-35.87-19.49-28.73-26.03-64.83-19.54-98.77,4.87-25.46,17.19-49.05,39.21-63.74,15.12-10.08,30.37-12.67,48.08-9.21Z"/>
      <path class="cls-5" d="M535.04,339.77c15.07,1.32,28.67,11.01,38.08,22.33,21.41,25.75,27.84,62.76,24.79,95.39-2.11,22.51-11.06,48.54-29.11,63.32-11.96,9.8-25.76,11.47-40.67,10.01-17.31-3.87-30.32-12.31-41.64-25.96-19.75-23.85-27.26-57.9-24.16-88.33,2.48-24.34,13.17-48.88,32.45-64.51,11.47-9.3,25.53-13.83,40.26-12.25Z"/>
      <path class="cls-3" d="M557.76,393.74c1.59.33,3.11.84,4.55,1.61,5.94,3.18,9.55,9.82,11.54,16.04,5.03,15.7,2.21,35.2-5.33,49.67-2.97,5.7-7.84,12.32-14.28,14.17-3.3.95-5.33.37-8.29-1.19-1.65-1.55-3.17-3.08-4.45-4.95-8.67-12.64-7.74-31.15-4.98-45.44,1.14.14,2.3.29,3.45.2,2.7-.22,5.21-1.53,6.94-3.61,1.64-1.99,2.26-4.72,1.92-7.25-.55-4.08-2.91-6.75-6.03-9.2,4.02-5.64,8.12-8.62,14.96-10.05Z"/>
      <path class="cls-5" d="M750.8,516.19c20.49,19.39,44.97,33.9,64.81,54.15,6.33,6.46,12.37,13.41,17.5,20.86,24.39,35.39,41.65,89.31,41.26,132.33-7.45-3.4-15.82-5.59-23.54-8.48-3.33-15.62-12.72-40.7-23.17-52.8.93,5.74,3.21,11.2,5.04,16.71,2.2,6.6,4.09,13.29,5.66,20.07,10.5,45.7,8.66,94.88-8.36,138.8-6.52-5.19-12.99-10.43-20.17-14.71,3.81-31.56,4.93-61.63-4.77-92.36-1.6-5.09-3.51-11.77-6.36-16.26l-.89.32c-.6,1.65,3.84,19.86,4.48,24.1,1.62,10.74,2.13,21.88,2.22,32.74,0,19.7-2.25,39.33-6.68,58.52-7.9,32.87-25.53,71.09-46.45,97.82-8.73,11.09-18.1,21.66-28.06,31.66-4.83,4.82-10.01,9.24-14.81,14.12,20.34-32.49,24.2-70.33,18.28-107.55-4.27-27.26-16.58-52.63-35.36-72.86-2.74-2.99-5.82-7.16-9.08-9.39-1.34-.92-2.75-1.54-4.35-1.21.03,1.26,18.77,26.03,21.31,30.1,22.8,36.01,30.04,79.72,20.08,121.16-3.44,14.66-10.81,36.97-22.01,47.2-3.36,3.06-8.03,5.41-11.9,7.81,13.01-26.51,17.28-60.29,10.2-89.04-.97-3.94-3.61-14.38-7.12-16.51-1.08,2.07.17,5.67.65,7.86,2.5,11.26,3.8,22.26,3.8,33.8,0,26.05-5.7,45.75-14.88,69.99-18.2-22.28-35.59-27.02-59.15-41-48.25-28.63-93.25-67.4-123.57-115.05-7.23-11.36-13.34-23.35-19.12-35.49h0s-.13.32-.13.32c8.63,36.57,43.16,80.51,70.24,105.76,12.48,11.63,26.77,22.25,40.74,32.02,8.97,6.27,18.64,11.15,27.87,16.96-12.08-3.84-23.84-8.72-35.54-13.58-19.41-8.06-38.24-16.52-56.54-26.93-64.79-36.88-98.09-90.91-117.4-161.43-2.58-9.38-4.65-18.89-6.23-28.49-1.01-5.94-1.51-12.19-3.12-18-4.01,41.86,5.42,82.27,24.25,119.61,3.05,6.06,6.6,11.86,10.19,17.61,2.15,3.45,4.86,7.1,6.38,10.87,1.18,2.93.68,7.37,1.11,10.56,1.05,7.79,4.48,15.71,8.07,22.63-26.29-17.81-52.95-37.44-73.84-61.58-41.47-47.94-67.15-103.57-67.11-167.66,0-7.18.97-14.46,1.49-21.63-5.67,19.46-6.57,42.75-4.93,62.83.51,6.21,2.58,12.62,2.35,18.82-.18,4.83-2.46,9.78-3.48,14.53-2.65,12.36-2.53,24.71-.98,37.18-19.7-24.45-32.24-44.41-39.19-75.57-8.19-36.71-.56-79.88,19.85-111.73,13.02-20.31,33.51-46.84,58.15-52.07,24.35-5.18,56.44,16.54,76.29,29.38,26.6,17.21,54.92,28.69,87.17,25.15,6.23-.68,12.43-2.23,18.55-3.54-28.9,14.65-65.43,23.39-97.73,25.08-9.88.52-20.12-.92-29.88.01-.16.01-.31.03-.47.05,3.85,9.73,11.8,17.11,20.24,22.96,7.17,4.97,15.19,8.78,23.19,12.21,33.8,14.51,70.56,18.02,106.68,11.32-15.82,14.26-28.93,36.21-31.69,57.57-.76,5.84.19,12,3.93,16.69,4.62,5.79,11.32,6.95,18.32,6.08,13.41-1.67,34.19-10.68,47.77-15.43,41.05-14.34,86.13-23.71,129.69-18.77,4.68,3.45,10.2,7.01,13.51,11.88,1.76,2.59,2.65,5.46,2.02,8.59-.92,4.61-4.59,8.82-9.13,10.15-7.79,2.27-17.46,1.01-25.51.7-28.79-1.08-62.09-2.39-87.34,13.68,14.03-3.29,28.1-5.7,42.5-6.63,13.89-.9,28.62-.51,42.51-.04,9.13.31,18.48,1.34,27.56.05,3.44-.49,6.95-1.77,9.78-3.8,4.17-2.99,6.81-8.85,7.64-13.82,2.42-14.62-15.95-22.89-23.26-33.35-10.89-15.58-10.44-37.45-7.21-55.33,29.8,7.3,61.38,5.8,89.17-7.88,16.31-8.03,32.31-17.94,38.45-35.9-11.03-2.06-22.18-1.3-33.32-1.46-22.67-.32-45.48-7.7-63.33-21.7,7.07-11.83,5.37-17.32,8.75-29.05,2.26-7.87,5.42-15.32,7.46-23.32Z"/>
      <path class="cls-3" d="M783.21,817.66c1.85,10.76-5.11,24.61-9.98,33.83l-.55-.55c-.35-1.21-.28-2.1.04-3.3,1.03-3.89,2.78-7.74,4.1-11.55,2.12-6.12,3.84-12.48,6.39-18.43Z"/>
      <path class="cls-3" d="M585.21,885.61c4.14.65,9.08,5.51,12.09,8.29,3.67,3.39,11.11,9.56,11.3,14.78-4.49-2.6-22-18.41-23.39-23.07Z"/>
      <path class="cls-3" d="M763.32,834.07c.23.13.47.25.69.39,1.2.78,1.47,1.42,1.72,2.82,1.57,8.54-4.53,23.48-9.3,30.52-.77.68-1.2,1.08-2.22,1.28-.1-.3-.28-.58-.3-.9-.07-1.75,2.32-7.55,2.94-9.73,2.25-7.86,3.4-16.86,6.47-24.38Z"/>
      <path class="cls-3" d="M561.66,880.56c6.87,1.56,23.86,20.26,28.36,26.26.76,1.01,1.31,1.51,1.15,2.79-10.98-6.15-23.71-16.76-29.88-27.85l.37-1.2Z"/>
    </g>
  </g>
</svg>