<?xml version="1.0" encoding="UTF-8"?>
<svg id="Layer_2" data-name="Layer 2" xmlns="http://www.w3.org/2000/svg" viewBox="0 0 716.62 911.68">
  <defs>
    <style>
      .cls-1 {
        fill: #362525;
      }

      .cls-2 {
        fill: #fff;
      }

      .cls-3 {
        fill: #f1ecdc;
      }

      .cls-4 {
        fill: #b6253f;
      }
    </style>
  </defs>
  <g id="Layer_1-2" data-name="Layer 1">
    <path class="cls-1" d="M625.28,625.17c16.72-15.5,27.48-34.24,36.76-54.83,11.73-3.72,27.49-23.04,33.27-34.09,4.07-7.77,8.68-16.88,5.88-25.82-.18-.58-.38-1.16-.6-1.72-9.82-8.07-16.53-11.9-23.1-23.31-.85-1.48-2.28-3.37-2.38-5.08-.03-.43.03-.9.03-1.33.04-2.29-2.8-4.69-3.68-6.83-2.24-5.4-2.59-10.88-6.27-15.65.12-.98.5-2.38.42-3.33-.16-1.81-2.49-5.22-3.18-7.12-1.55-4.3-2.28-8.92-3.77-13.22-2.18-6.3-4.89-12.29-6.85-18.7-.92-3.01-4.57-17.15-5.99-19.16-1.66-2.34-2.88-2.18-2.81-5.46.08-3.53-15.04-30.99-17.9-35.52-3.15-5-7.46-11.44-11.59-15.59-5.08-5.1-11.04-10.88-16.96-14.95-31.57-21.73-82.97-31.41-120.99-31.16-1.54.01-2.9.17-4.38-.4,1.3-2.9,4.66-5.18,6.67-7.67,4.99-6.19,6.57-19.46,3.51-26.54-.43-.99-1.04-1.92-1.63-2.81,14.4-15.65,17.84-22.68,23.44-43.33,1.16-4.28,3.15-9.7,2.9-14.17-.28-5.24-6.09-9.01-5.86-13.84.58-11.83,14.17-10.61,4.42-34.01,14.77,5.99,31.78,11.29,45.48,19.27-3.26,3.73-10.68,16.19-10.86,20.95-.06,1.5.88,3.26,1.46,4.61,1.85,4.29-1.76,8.04-1.22,12.35.43,3.5,4.58,5.53,5.54,8.64,1.53,4.95-2.88,6.62,5.7,10.01.62.24,1.25.47,1.89.68.99,3.7,1.71,6.28,5.28,8.31,1.54.87,4.63,1.87,6.37,1.44.5-.12.84-.27,1.3-.46,2.58,1.34,3.65,3.98,5.92,5.39.58.36,20.96,1.92,22.78,1.88,2.45-1.56,4.93-3.09,7.33-4.73l2.97.92c7.7-3.32,5.34-5.52,10.72-9.56,3.58-2.7,6.61-1.12,8.88-6.09,1.21-2.67-.38-7.36,2.61-9.09.28-.16.59-.26.89-.4.99-.46,1.62-1.06,2.03-2.09.73-1.83.99-3.99,1.31-5.92-.78-1.56-1.65-3.12-2.3-4.74.96-2.91,2.14-5.66,3.39-8.46-1.34-3.14-3.08-5.95-4.89-8.84.78-1.94,2.31-4.6,1.38-6.67-1.04-2.3-3.72-3.91-5.35-5.81-2.8-3.27-1.87-8.64-6.7-10.25-2.73-.91-4.92-1.18-6.36-4.03-.95-1.89-1.24-3.28-3.43-4-4-1.31-8.17.74-11.28-2.83-.94-1.08-1.4-1.47-2.89-1.54-5.52-.27-10.79,2.28-16.07,3.56-.15-.1-.3-.2-.45-.31-4.61-3.29-8.62-8.1-12.77-12.02-7.97-7.52-16.1-14.87-24.38-22.05-27.54-23.73-59.3-44.65-93.47-57.32-7.64-2.83-15.06-5.42-23.15-6.66-6.79-1.04-14.01-.99-20.81.02-16.76,2.49-34.65,12.76-48.89,21.8-4.3,2.73-8.1,5.95-12.68,8.25-.17.09-.34.19-.51.28-2.18,1.1-19.26-.88-23.94-.2-10.6,1.54-25.77,18.4-31.13,27.14-1.56,2.55-2.66,5.4-3.67,8.2-2.8,7.75-4.62,16.38-3.65,24.66.41,3.53,2.14,6.95,1.28,10.54-1.26,5.25-5.36,9.85-7.95,14.52-6.7,12.05-10.62,27.31-10.98,41.09-.18,6.92-.41,14.25.81,21.08.3,1.69,2.08,6.21,1.05,7.34-12.09,2.26-28.69-2.8-38.67-9.62-3.32-2.27-8.95-8.43-11.29-9.65-.8-.42-2.56-.56-3.46-.3-1.47.42-1.77.81-2.69,1.94-1.84,10.45,7.87,28.16,13.73,36.5,2.51,3.64,5.35,7.04,8.49,10.15,3.85,3.76,8.43,6.85,11.18,11.58-7.63,15.81-8.56,48.69-8.2,66.68.07,3.3-.41,8.55.75,11.59.55,1.44,1.43,2.63,2.93,3.2,1.28.48,2.7.5,4.04.54.56,7.22,1.08,13.73,2.85,20.79-18.11,12.79-45.26,13.09-66.49,9.57-2.56-.42-4.98-1.22-7.42-2.07l-.3-.75.13.07c-.08-.12-.17-.24-.25-.37l-.26-.67-.13.09c-7.74-10.92-26.9-21.11-39.59-23.64-1.5-.3-2.46-.42-3.85.29-.11.06-.23.11-.35.16.74-9.23,4.08-13.79-2.73-21.75-5.83-6.82-19.34-11.24-22.97-15.3-.57-.64-.52-1.89-.48-2.68.36-7.06,3.26-14.35,4.8-21.24,2.06-9.25,3.71-18.63,5.96-27.83,1.2-4.89,2.93-9.66,4.02-14.57,1.13-5.1,1.72-10.29,2.77-15.4.86-4.18,2.95-7.99,3.35-12.25,1.05-11.09,5.57-27.71,8.21-38.92l16.58-70.05c.72-3.13.46-7.82,1.64-10.66.24-.58,1.37-1.11,1.64-1.69.92-1.99,1.28-8.06,1.79-10.56,2.78-13.37,5.51-26.71,9.29-39.84.61-2.12,1.57-5.28,3.43-6.66,1.55-1.16,3.14-1.41,4.99-.98,4.12.94,9.02,5.08,11.1,8.72,5.64,9.87,7.75,15.27,4.55,26.74-1.95,7-6.35,12.66-8.71,19.45-.74,2.13.8,3.88.16,6.25,2.12,4.5,10.77,8.99,15.28,10.68,6.79,2.55,20.12,6.4,27.03,2.93,5.75-2.89,9.27-15.7,10.99-21.64,4.58-15.83,7.42-37.26,4.67-53.52-.99-5.86-4.02-13.04-6.89-18.22-8.51-15.34-26.05-28.52-42.84-33.21-4.08-1.14-8.24-1.65-12.46-1.91-.72-.04-1.29-.15-1.98-.34-.3.09-.59.18-.89.26-3.5.95-7.59.08-11.27.99-12.12,3-30.45,14.8-37.26,25.23-1.72,2.63-2.75,6.15-3.5,9.18-5.78,23.45-10.15,47.26-15.58,70.78l-30.11,129.49c-.19.85,0,1.43.14,2.26.32,1.86-6.89,28.62-7.93,33.22-2.81,12.33-4.37,27.93-8.46,39.52-6.14-1.41-11.22-2.58-16.99.91-3.5,2.11-5.48,5.63-6.39,9.54-1.35,5.74,2.6,17.01,2.53,17.25-.14.44-.68.63-1.02.94-1.32.17-2.55.26-3.89.26-4.18,2.72-8.13,6.13-9.3,11.18-.61,2.62-.28,6.28-1.26,8.68-1.03,2.53-8.57,7.75-10.9,11.02-.53,6.29-.71,11.26,3.51,16.29,2.54,3.02,18.66,20.1,19.18,21.3-.39.49-.92.9-1.17,1.48-.57,1.33-.5,3.98-.84,5.52-1.26,5.71-2.98,11.38-4.44,17.04-4.3,16.7-9.31,33.25-14.12,49.81-.85,2.92-1.04,6.01-1.94,8.89-.83,2.65-2.25,5.12-3,7.79-.62,2.2-.9,5.64-.58,7.88.46,3.3,3.32,5.54,5.89,7.34,2.1,1.47,10.33,6.35,12.44,6.18.31-.02.61-.14.92-.2,1.87-.38,3.87.9,5.68,1.33,4.79,1.13,14.58,1.78,17.81-2.61,3.43-4.66,4.19-13.66,5.68-19.32,1.24-4.69,2.9-9.26,4.11-13.95,1.29-4.97,2.07-10.05,3.41-15.02,1.3-4.81,2.9-9.47,4.09-14.31,3.08-12.46,5.79-27.66,10.5-39.41,5.28,1.03,13.63,4.13,18.04,7.3.71,2.54-.23,5.68-.37,8.32-.55,10.24-.53,28.98,9.41,34.71,11.69,6.74,26.39,8.03,38.33,14.25l.72-.16c4.77-1.07,9.35-5.69,13.95-5.88,1.3-.05,18.17,4.81,21.82,5.45,26.24,4.57,53.25,2.54,77.51-8.76,3.7-1.72,6.92-4.23,10.51-6.15,1.6,1.6,2.3,13.15,3,16.26,1.59,7,3.78,14.6,7.68,20.64-.6,5.54-6.49,7.77-7.37,13.18-.35,2.15.46,4.74,1.08,6.8,1.38,4.59,3.55,8.96,5.19,13.47,2.44,6.7,4.37,13.64,7.05,20.24,1.3,3.19,2.86,6.27,4.46,9.33-3.28,1.7-5.93,3.41-8.46,6.16-3.74,4.09-6.31,9.07-9.33,13.68-6.35,9.7-12.83,19.29-18.86,29.2-9.06-.04-69.27-.35-72.86,1.22-.29.43-.72.8-.88,1.3-.62,1.93-.93,110.72.01,115.67.12.63.18.75.39,1.28,5.82,3.1,33.03,1.22,41.46,1.48-4.56,9.45-9.33,18.49-12.61,28.49,1.68,5.31,5.23,8.25,8.19,12.72-6.35,15.65-13.89,30.7-20.75,46.11-2.16,1.38-3.6,2.51-6.25,1.92-7.68-1.72-14.45-10.94-20.49-15.77-5.65-4.52-11.65-9.03-18.06-12.38-6.27-3.29-12.99-5.62-19.95-6.92-4.27-.8-8.48-1.23-12.68-2.44-.18.07-.37.14-.55.2-3.75,1.28-7.87.85-11.82,1.92-15.04,4.09-27.37,11.16-37.09,23.49-2.06,2.61-4.31,5.4-5.82,8.38-.93,1.85-1.54,3.76-.94,5.81,1.38,4.74,8.83,9.07,12.69,11.88,19.44,14.11,39.68,25.61,61.64,35.36,13.79,6.02,28.25,10.41,43.06,13.06l-.17.73c-.45,2.03-.89,3.4.27,5.29,3.26,5.29,10.08,4.62,14.63,7.82-1.13.48-.55.42-1.61.27-3.75-.52-7.69.02-11.51-.08-13.39-.32-26.64-.3-40.02-.21l-45.25.22c-9.41.02-18.9-.26-28.3.15-.5,2.05-1.7,5.12-.51,7.07.53.86,1.26,1.64,1.97,2.37l426.23.05c43.95.19,87.91.15,131.86-.12,19.86.01,39.9.93,59.74.38,2.08-.05,4.49-.16,6.17-1.54,1.23-1.02,1.92-3.3,1.71-4.85-.16-1.19-.96-1.93-1.95-2.52-1.39-.82-3.52-1.01-5.09-1.06-7.15-.23-14.46.19-21.62.18l-51.72-.1c-37.54-.03-75.2-.62-112.73.12,8.7-8.03,20.92-19.9,28.63-28.89,2.28,4.15,3.11,5.96,7.76,7.53,5.66-4.31,11.17-8.78,16.16-13.86,5.59-5.68,10.74-12.04,17.07-16.92-.45-1.96-.83-4.2-1.72-5.99-3.34-6.77-21.52-28.86-27.21-33.77-12.51-11.79-22.59-28.25-31.86-42.69-1.85-2.88-4.17-5.71-5.64-8.77.36-2.17.73-4.3.88-6.49-2.64-4.8-6.58-10.08-8.49-15.13,4.71-3.05,32.48,2.02,37.23-1.29,1.61.7,1.79.77,3.51.47,1.68-1.48,1.69-2.99,1.82-5.13.43-7.05.17-14.23.18-21.3.11-9.35.16-18.7.16-28.05-.04-6.65-.64-13.78.11-20.37,32.97,1.3,68.73-13.53,92.87-35.91ZM457.8,853.3c-5.16-.46-10.4-.01-15.57.07-6.73.1-13.48-.06-20.2.17-14.52.51-27.29,7.1-36.96,17.72-4.51,4.95-14.53,18.51-16.93,24.58-.52,1.32-.53,2.53-.45,3.92.01.19.03.38.04.57l-.24-.21.27.79c-1.43.68-3.03.59-4.59.65-10.14.61-20.68-.08-30.87-.03l-74.93-.14c-10.62-.1-21.6-.92-32.17-.3,5.86-8.59,10.18-17.23,10.58-27.72.3-7.85,14.03-32.03,18.94-39.53,6.36-9.72,13.69-19.04,20.45-28.57,2.96-.09,5.95-.38,8.91-.6,6.52-7.66,18.45-25.69,21.57-35.08-.35-1.7-.64-3.64-1.46-5.2-.92-1.74-3.67-4.13-3.84-6-.45-4.82,6.56-18.21,9.49-22.25,8.94.52,21.91.99,30.65-.18,5.32,1.22,27.55.68,34.43.57,3-.04,6.74-.68,9.63-.07l-.08,1.46c3.11,3.26,5.8,6.92,8.92,10.12,3.91,4.01,8.27,7.46,12.03,11.63-2.44,2.8-7.77,9.64-7.08,13.54,1.08,6.1,14.76,16.74,19.27,20.8,2.92,2.64,5.77,6.1,9.22,8.01,3.52,1.96,8.97.53,12.59-.59,9.21,8.64,28.45,24.15,33.8,34.48-3.93,5.83-10.69,11.83-15.43,17.37Z"/>
    <path class="cls-1" d="M696.12,901.58c4.93.34,9.99-.59,14.9.09,1.9.26,3.98.8,5.02,2.58.55.94.78,2.16.38,3.21-.8,2.07-3.15,2.88-5,3.68-4.22.28-13.36,1.3-16.57-1.91-.87-.88-1.26-2.17-1.21-3.39.09-1.89,1.15-3.06,2.47-4.26Z"/>
    <path class="cls-1" d="M46.02,901.48c.13.04.25.09.38.1,1.02.11,1.88,0,2.86.41,1.67.69,3.09,1.85,3.81,3.51,0,1.68-.48,3.05-1.73,4.23-3.53,3.32-16.31,1.1-21.21,1.3l-.54.03c-2.3.1-4.81.18-6.78-1.23-.96-.69-1.6-1.66-1.66-2.87-.05-1.11.47-2.99,1.31-3.78,3.09-2.89,18.16-1.3,22.92-1.66l.64-.05Z"/>
    <path class="cls-3" d="M422.69,865.02c1.4-.27,2.77-.36,4.2-.36,5.14,0,14.48.61,18.34,4.46.19.81.4.78-.07,1.34-2.06,2.43-7.78,2.39-10.77,2.55-.78-.27-1.1-.26-1.94-.12-3.86.6-16.8,1.08-19.74-.69-.75-.45-.64-.8-.84-1.59.68-1.98,2.35-3.11,3.89-4.45,2.2-.04,4.74-.77,6.93-1.14Z"/>
    <path class="cls-3" d="M124.75,802.44c2.22,1.54,5.06,1.73,7.63,2.46,5.33,1.49,12.79,4.1,17.08,7.67,1.76,1.46,4.49,4.45,4.57,6.85.03.79-.35.84-.88,1.3-1.7.19-2.86-.69-4.28-1.5-9.51-4.74-19.62-8.26-29.48-12.16-.57-.89-.97-1.6-1.25-2.63l.56-.79c1.21-.36,2.21-.62,3.48-.44,1.33.2,1.42-.12,2.56-.76Z"/>
    <path class="cls-3" d="M184.88,106.94c.55.25.97.4,1.58.48,10.18,1.28,18.15,2.1,26.54,8.5l-1.81,3.5-.85.14c-.08.01-.17.01-.25.04-2.01.65-3.55.74-5.64.58-6.36-.49-18.36-3.3-22.28-8.74-.75-1.05-.76-1.73-.58-2.95,1.15-1.35,1.6-1.22,3.29-1.55Z"/>
    <path class="cls-3" d="M63.75,299.44c2.46,1.64,13.97,19.6,17.68,23.8-1.55,2.02-3.74,3.38-5.42,5.33-1.45-.2-2.01.17-3.34.8l-.68.32c-.74-.36-1.03-.6-1.43-1.33-2.35-4.3-6.61-6.67-9.03-10.81-2.5-4.27.88-13.39,2.21-18.11Z"/>
    <path class="cls-2" d="M18,370.57c.6.01,1.1-.01,1.69.18,2.38.78,15.16,13.55,17.36,16.13,1.4,1.64,2.66,3.47,3.27,5.56.42,1.43.54,3.65-.36,4.94-.83,1.21-1.57,1.89-2.98,2.06l-3.77.47c-7.11-4.46-13.93-14.49-18.63-21.37-1.01-1.48-1.59-2.46-1.27-4.24,1.21-1.75,2.92-2.64,4.7-3.74Z"/>
    <path class="cls-3" d="M495,594.83c.15-.03.3-.07.45-.09,1.76-.25,4.61-.4,6.32.15,6.68,2.15,13.77,14.29,20.48,18.92-3.38.03-6.77.04-10.16.03-4.92.42-9.99.3-14.93.4-1.5-2.9-10.44-17.27-10.5-18.65.84-.32.57-.33,1.35-.26,2.48.21,4.19.73,6.58-.3.14-.06.28-.12.41-.19Z"/>
    <path class="cls-4" d="M51.19,392.11c2.72,1.28,5.82.99,8.67,1.92,2.53,2.06,3.61,6.87,4.63,9.88-3.32,5.53-4.86,12.63-6.09,18.93-.35,1.77.1,2.99-.6,4.73-1.01.64-.47.51-1.62.45-1.15-1.32-2.01-2.54-2.33-4.31-1.02-5.63-9.36-10.82-10.23-16.18.96-1.35,2.23-1.94,3.64-2.72,2.12-4.2,3.05-8.14,3.92-12.71Z"/>
    <path class="cls-2" d="M331.4,302.44c7.11,1.18,15.66-.23,22.28,1.47,1.08,2.91.88,6.81,1.09,9.92-1.72,1.92-3.26,3.69-5.46,5.08-2.93,1.65-6.25,3.06-9.36,4.34-2.33.96-6.48,2.77-8.85,1.78-.45-3.24,1.06-6.51,1.06-9.77,0-4.24-.69-8.54-.76-12.82Z"/>
    <path class="cls-2" d="M288.24,284.05c1.06,0,1.49.1,2.28.88,1.14,1.15,1.16,2.7.94,4.18-.39,2.6-5.34,21.41-6.46,23.25-.38.62-.58.71-1.1,1.09-2.73-.21-7.2-5.5-9.25-7.5-4.37-4.84-9.75-11.22-11.53-17.58.12-.2.16-.48.36-.61.03-.02,1.22.2,1.29.22,2.43.56,4.41,1.04,6.96,1.05,6.21.01,11.18-2.02,16.52-4.98Z"/>
    <path class="cls-2" d="M40.45,318.53c1.36.12,2.6.66,3.89,1.11,5.79,2.01,17.09,9.34,20.92,14.3l-.1.66c-3.26,1.52-5.89,4.12-8.57,6.47-2.88,2.48-5.85,4.68-8.98,6.82-1.17-1.46-2.31-2.99-3.37-4.54-3.53-5.17-8.44-14.44-6.97-20.82.49-2.12,1.43-2.92,3.19-4.01Z"/>
    <path class="cls-2" d="M32.59,347.48c.07,0,.14,0,.2.03,3.33,1.33,4.85,3.95,6.65,6.82l-2.7,4.53c1.64,5.8,4.72,10.7,9.95,13.89,4.24,2.59,11.76,4.26,16.76,3.85,1.55-.13,3.12-.86,4.63-.95,1.09-.06,1.49.53,2.19,1.22v1.05c-1,1.96-2.87,3.3-4.49,4.73l-.82.6c-1.81-.31-2.53.01-4.25.33-5.88,1.09-11.44-.92-16.29-4.16-6.26-4.19-14.72-11.82-18.03-18.64-.81-1.67-1.1-3.78-1.45-5.6.07-.14.13-.29.2-.43l.35-.71c1.08-2.24,2.1-4.34,4.59-5.24.75-.27,1.11-.39,1.76-.82l.75-.5Z"/>
    <path class="cls-4" d="M196.2,21.02l.43.06c4.66,3.58,10.64,8.42,13.98,13.21-2.28,1.98-7.26,1.41-10.2,2.42-6.44,2.21-12.1,5.22-17.67,9.1l-5.97,3.67c-.06-.05-.13-.1-.19-.16-2.56-2.33-6.1-3.36-9.3-4.6,8.73-9.27,18.99-15.93,28.91-23.7Z"/>
    <path class="cls-3" d="M161.75,9.25c8.72-.49,18.39,2.32,26.09,6.17-7.36,4.71-13.81,10-20.28,15.86-2.93,3.66-6.22,7.08-9.37,10.56-3.34-6.49-5.23-21.83-5.78-29.39,3.17-.84,6.19-2.25,9.34-3.2Z"/>
    <path class="cls-4" d="M209.49,76.89c6.27,1.78,6.5.97,11.29,5.92-1.56,5.32-2.27,19.36-5.59,22.68-2.84-.52-5.81-3.26-8.71-4.34-.2-.07-.4-.14-.6-.21-5.82-1.93-12.04-2.67-18.09-3.5,1.44-5.17,3.34-10.08,4.56-15.33,5.46-2.82,11.11-4.28,17.15-5.21Z"/>
    <path class="cls-4" d="M71.37,262.32c5.24,2.58,18.4,24.02,21.59,30.2-.58,2.81-.84,5.64-1.51,8.44-1.22,5.06-2.88,10-4,15.08l-.62.33c-2.85-1.54-10.93-16.77-13.45-20.59-1.11-1.68-2.53-3.14-3.63-4.82-5.34-8.15-.22-19.79,1.62-28.63Z"/>
    <path class="cls-3" d="M215.06,43.45l.89.46c3.84,4.82,6.22,20.18,5.52,26.56l-.88.37c-1.97-.14-3.42-1.3-5.16-2.11-5.68-2.64-14.68-.64-20.22,1.69l-.69.3c-1.22.47-2.32,1.15-3.46,1.79-.66-2.28-1.37-4.63-2.42-6.76-1.41-2.87-4.51-6.42-5.07-9.45,3.59-3.73,15.35-10.1,20.52-11.06,3.57-.67,6.92-.27,10.43-1.58.17-.06.35-.13.52-.2Z"/>
    <path class="cls-2" d="M300.44,292.33c2.8.72,5.91,3.06,8.64,4.27,3.81,1.69,9.73,2.77,12.96,5.14.87,7.53.52,15.47.66,23.07l-.63.65c-1.06.18-1.98.37-3.05.23-1.61-.22-2.38-.31-3.92.32-.13.05-.26.11-.4.17-6.42.14-15.9-1.94-20.86-6.21-2.23-5.12,5.06-18.02,5.6-23.88.12-1.35.53-2.49.99-3.75Z"/>
    <path class="cls-3" d="M456.67,250.35c10.17,4.37,12.23,5.78,17.16,16.17-1.96,7.33-4.68,13.42-10.15,18.82-6.69,6.61-13.06,7.32-22.01,7.31-1.82.25-3.44.39-5.27.27l-.15-.64c1.8-2.11,3.58-4.22,5.15-6.51,1.99-2.91,4.08-8.52,6.79-10.55.15-.11.31-.21.46-.32,2.99-2.1,6.43-2.72,9.69-4.22,1.3-.6,2.08-1,2.55-2.36-1.87-5.49-5.63-2.35-8.91-4.59-.86-3.84,2.89-9.99,4.69-13.38Z"/>
    <path class="cls-2" d="M337.8,576.97c1.21.07,2.11.14,3.26.55.08.76-14.66,33.44-16.32,37.29-6.24-.87-13.07-.14-19.39-.2-1.16-.02-1.17.1-2.21-.57,1.18-3.48,3.22-6.79,4.77-10.14,2.38-5.12,4.49-10.33,6.99-15.4,1.16-2.35,3.46-5.33,3.89-7.89.05-.29.08-.58.11-.86,2.5-2.66,13.99-.89,18.22-2.52.23-.09.45-.18.67-.28Z"/>
    <path class="cls-4" d="M110.36,97.01c7.53,8.61,14.25,18.59,20.64,28.08-.42,4.04-1.01,7.82-2.01,11.76-.86,3.38-2.41,7.59-2.65,11.02-.09,1.24-.2,1.95-.58,3.13-4.91-.6-17.14-21.17-23.14-24.79.98-5.75,4.92-25.32,7.74-29.2Z"/>
    <path class="cls-4" d="M90.66,179.99c6.25,8.35,14.41,18.04,19.52,26.9.49.86,1.13,1.96,1.31,2.94.78,4.16-4.31,24.25-5.59,29.34-3.45-5.24-6.81-10.63-10.47-15.72-3.3-4.59-7.19-8.97-10.07-13.83-.32-.55-.78-1.23-.91-1.85-.83-4.02,5-23.12,6.2-27.78Z"/>
    <path class="cls-4" d="M143.08,16.12l.43.08c1.45,2.14,1.31,8.72,1.7,11.45,1.1,7.7,2.51,15.71,4.6,23.2-1.08,2.18-2.14,4.33-2.8,6.68-1.21,4.29-1.28,11.53-3.88,15.11l-5.09-8.04c-3.54-5.2-6.07-11.1-9.35-16.47-1.86-3.03-4.73-6-6.28-9.11-.45-.89-.21-2.09.06-3.01,2.07-7.12,14.04-16.51,20.62-19.89Z"/>
    <path class="cls-3" d="M35.54,410.95c2.73,2.42,17.47,27.43,18.42,31.13-3.87,10.11-4.45,21.66-9.12,31.37-6.17-10.43-11.47-21.35-17.71-31.74,3.8-9.98,4.03-21.04,8.4-30.77Z"/>
    <path class="cls-3" d="M118.74,51.81c5.1,3.93,7.87,13.43,11.87,19,2.72,3.79,7.16,6.37,9.54,10.23.4.66.92,1.58.97,2.35.18,3.14-5.26,23.27-6.33,27.66l-.45,1.62c-.31-.26-.63-.52-.93-.8-.09-.08-.15-.18-.23-.26-7.34-8.05-13.32-17.51-20.5-25.8,1.27-11.41,4.04-22.69,6.07-33.99Z"/>
    <path class="cls-3" d="M81.21,219.89c3.41,1.93,17.59,23.18,21.57,27.86-1.22,10.99-3.62,21.14-6.32,31.82-7.4-9.64-14.03-19.09-22.32-28.08.43-5.99,2.94-12.1,4.24-18,1-4.5,1.19-9.28,2.82-13.6Z"/>
    <path class="cls-3" d="M98.66,137.64l2.85.22c3.58,3.22,18.21,21.81,19.56,25.75,1.15,3.36-4.64,29.95-6.39,33.73-3.37-3.47-5.8-8.2-8.64-12.14-4.38-6.06-9.21-11.72-13.05-18.16,2.44-9.54,4.61-19.63,5.67-29.42Z"/>
    <path class="cls-4" d="M23.37,454.48c.96.68,1.51,1.42,2.18,2.38,2.08,2.96,15.12,26.35,15.58,28.66.21,1.03-.16,2.47-.36,3.51-.7,3.67-4.76,21.49-7.13,22.91-1.41.84-3.03.21-4.51-.16-5.27.18-13.63-1.97-17.96-5.12-.45-.8-1.35-1.95-1.31-2.87.13-3.13,1.69-6.9,2.56-9.97,3.3-11.65,8.22-24,9.95-35.94.19-1.29.45-2.21,1-3.39Z"/>
    <path class="cls-4" d="M286.57,576.51c.21.09.4.23.63.28,1.25.29,2.14.27,3.4.83,5.77,2.58,11.01,2.35,17.18,2.8-3.21,6.38-6.35,12.88-9.2,19.42-2.07,4.76-3.82,9.89-6.49,14.34-4.12.04-8.33.26-12.43-.21-6.31.99-15.75.67-22.17.14.14-1.66,18.17-29.4,20.61-32.92,2.52-3.62,4.34-3.93,8.46-4.68Z"/>
    <path class="cls-3" d="M71.77,816.1c.77.34,1.05.32,1.89.33,3.33.04,6.59.47,9.88.95,34.45,4.96,86.61,36.71,117.09,54.36,5.48,3.17,19.09,9.45,22.4,13.86-1.94,4.45-4.54,10.73-7.97,14.14-1.19.22-2.06.45-3.27.22-.7-.67-1.1-1.18-2.05-1.4-4.87-1.17-17.84-7.89-21.62-11.27.47-.44.93-.89,1.4-1.33,2.61-2.42,4.75-5.18,6.98-7.94-4.96-2.46-9.53-5.78-14.4-8.43-31.26-17-61.49-36.2-96.51-44.47-4.74-1.12-9.79-2.41-14.63-2.94-1.56-.17-3.08.03-4.67-.16.29-1.38,4.31-4.75,5.47-5.92Z"/>
    <path class="cls-4" d="M302.97,398.23c.44.36.2.1.47.97l-1.66.79c-1.56,4.62-4.24,9.11-6.36,13.51-2.96,6.12-5.47,12.44-7.52,18.91-5.75,18.49-3.33,35.52,3.23,53.39,1.75,4.76,3.49,9.57,5.83,14.07-4.58.54-11.08,1.94-15.52.58-.9-.28-1.06-1.09-1.5-1.86-2.26-4.98-4.25-9.8-5.77-15.08-1.39-4.82-2.07-9.86-2.87-14.8-4.03-24.79-.59-46.18,11.54-68.26.85.47,1.72.99,2.62,1.34,3.89,1.52,13.47-2.05,17.5-3.55Z"/>
    <path class="cls-2" d="M470.91,735.62c.87.18.59.16,1.32.21,1.39.09,2.64.26,4.02.54,5.19,4.8,10.2,13.02,12.11,19.85-.58,1.54-1.24,3.04-1.98,4.51-6.8,13.47-31.53,27.12-45.59,31.59-1.24.39-3.38,1.14-4.61,1.04-.58-.04-1.42-.8-1.97-.78-.88.01-2.4.74-3.27,1.02-1.6-.65-2.91-2.46-4.08-3.71-5.73-6.08-12.66-10.9-18.71-16.65.45-1.46.9-2.84,1.55-4.21l.79-.04c1.5,1.83,2.9,3.27,5.28,3.82,12.07,2.8,26.4-7.1,36.04-13.16,10.01-6.27,16.38-12.15,19.09-24.03Z"/>
    <path class="cls-2" d="M329,386.05l.73.19c2.36,2.78,4.47,4.42,7.72,5.98-9.37,14.34-18.99,29.09-24.36,45.51-6.73,20.6,2.61,41.54,11.68,59.7-3.78.32-7.34.73-11.05,1.53-.72-.01-.41.04-1.04-.14-1.09-.3-1.84-.47-2.97-.24-.31.07-.63.15-.94.22-2.93-1.22-6.29-9.96-7.26-13.02-.4-1.25-.5-2.88-1.08-4.02-.37-.72-1.26-1-1.65-1.76-1.45-2.81-2.11-7.55-2.92-10.7-5.07-19.78,2.38-40.88,11.46-58.41,2.81-5.42,6.4-10.63,8.66-16.29.07-.17.13-.33.19-.5l12.82-8.06Z"/>
    <path class="cls-1" d="M302.12,433.22c1.85-.05,3.85.04,5.35,1.3,1.08.91,1.61,1.8,1.64,3.22.07,2.71-1.56,4.2-3.23,6.06-2.06-.27-3.94-.3-5.42-1.95-1.03-1.13-1.63-2.41-1.4-3.99.3-2.05,1.58-3.31,3.05-4.64Z"/>
    <path class="cls-3" d="M539.96,830.58c4.15,3.11,10.07,11.78,13.15,16.17-6.14,7.3-16.01,15.36-22.92,22.92-1.35-2.56-3.9-8.43-6.54-9.68-5.41,2.16-31.94,30.55-38.82,37.23-1.16,1.13-1.35,2.62-2.56,3.66-5.53.72-11.35.4-16.91.4l-28.33-.02-28.46.1c-5.53.03-11.39.45-16.86-.2-3,.54-11.38.61-14.59.2-.55-.54-.69-.41-.63-1.09.2-2.22,4.58-7.24,6.63-7.83,2.28-.66,9.54.44,12.33.45,18.18-.09,36.35-.04,54.53.13,8.57.03,17.76.79,26.26.05,1.21-.11,2.03-.48,2.98-1.22,12.08-9.45,24.65-24.32,35.46-35.57,8.32-8.66,17.34-16.66,25.28-25.69Z"/>
    <path class="cls-2" d="M222.71,739.03c1.34,1.55.95,4.05,1.45,5.98,1.23,4.68,18.04,14.57,22.42,16.82,7.64,3.91,32.19,14.96,39.98,11.82,3.48-1.41,5.23-6.01,8.29-7.01l.8.8c.72,4.84-9.75,17.54-12.9,21.98-1.16,2.35-2.19,5.08-3.99,7.01-1.52.5-9.91-.54-12.15-.84-16.5-2.16-42.18-13.66-52.48-27.14-.84-1.1-1.69-2.16-2.64-3.16-.84-.89-.77-1.11-1.05-2.26,1.68-5.63,8.37-19.64,12.28-24Z"/>
    <path class="cls-2" d="M519.55,514.47c5.66,4,17.04,20.3,22.16,26.5.45,4-1.93,8.22-3.77,11.68-6.51,12.03-16.62,21.73-28.92,27.72-2.99,1.49-7.17,1.88-9.17,4.47-6.19.82-12.08,1.65-18.25.29-1.07-.35-2.16-.7-3.11-1.29-2.57-1.62-20.9-20.44-21.42-22.54,2.54.21,5.36.57,7.9.25,8.05-1.01,18.08-5.77,24.89-9.99,12.97-8.02,26.08-21.96,29.68-37.08Z"/>
    <path class="cls-2" d="M546.23,557.21c.83.26.4.17,1.53.19h.92c0,.44-.19.93.03,1.31,1.18,2.09,14.68,7.99,17.12,13.42-.82,3.31-5.76.89-8.24,2.46-.59,1.15-.73,1.93-.42,3.22,2.02,8.18,12.01,1.83,16.83,5.73,1.05.84,1.24,1.13,1.34,2.38-.57.72-1.09,1.34-1.77,1.96-1.32,1.2-2.65,2.17-2.53,4.16.15,2.55,2.73,4.03,4.55,5.46,9.49-4.8,13.81-16.54,20.08-24.67,2.02.55,4.33,1.01,6.16,2.02.93.52,1.64,1.16,1.85,2.21,1.32,6.57-8.74,26.34-12.84,31.9-2.09,2.55-4.18,5.12-6.4,7.56-8.39,9.24-17.75,14.85-30.29,15.4-2.21-1.28-4.39-2.57-6.33-4.26-5.97-5.21-11.24-11.53-16.65-17.31-6.4-6.85-13.65-13.74-18.99-21.46,15.42-6.64,25.42-17.62,34.04-31.7Z"/>
    <path class="cls-2" d="M590.9,159.09c2.29-.46,6.2,2.82,8.47,3.58,1.59.54,3.89.24,5.29,1.03,3.38,1.89,14.39,16.14,15.26,19.85-2.47,6.92,2.47,7.23,2,11.46-.6,5.24-4.26,5.38-2.16,13.52l.17.63c-2.15,3.52-9.89,15.17-13.67,16.49-1.05.37-2.94-.11-3.93.41-2.22,1.18-3.23,5.21-6.11,6.33-2.38.93-6.42-1.08-9.28-.75-1.71.2-3.08,1.06-4.68,1.59-1.7.56-3.16-.4-4.67-1.12-3.77-2.66-8.27-2.9-12.32-4.97-3.65-1.87-3.9-4.24-6.16-7.18-1.67-2.18-3.85-3.79-5.41-6.14-4.19-6.29-2.13-8.46-2.65-14.67-.2-2.37-1.41-5.06-2.21-7.31.17-.34.34-.69.51-1.03,3.61-7.06,3.38-11.97,8.72-18.23,10.04,1.22,12.57,5.53,24.99,5.13l2.76-6.25c-.65-2.55-2.29-4.78-2.83-7.3-.23-1.04-.36-2.13.2-3.03,1.68-.61,3.55-1.47,5.33-1.68.55-.07,1.12-.11,1.67-.2l.73-.13Z"/>
    <path class="cls-3" d="M338.55,505.46c1.27.35,2.06.71,3.11,1.49,1.45,4.67,2.01,9.73,3.3,14.49,1.03,3.82,2.77,7.43,3.88,11.23.86,2.97,1.16,6.29,1.89,9.34,1.55,6.58,5.1,14.57,5.03,21.24-3.86,6.89-51.25,5.6-56.32,9.12-.25.17-.49.37-.74.55-2.48-1.83-3.35-5.42-4.37-8.2-3.82-10.47-6.82-21.29-10.03-31.96-1.64-5.45-4.01-11.45-4.87-17.04-.18-1.15.04-1.96.53-3,3.75-3.01,36.37-4.54,43.02-5.21,5.2-.53,10.37-1.79,15.57-2.06Z"/>
    <path class="cls-1" d="M328.55,514.43c.81-.12,1.67.33,2.28.83,2.96,2.43,4.49,11.58,4.92,15.23.71,6.04-5.21,3.92-7.62,7.12-.16,1.33.11,2.39.55,3.64,1.72,4.89,6.2.26,9.56,2.41,1.8,1.17,2.67,3.43,3.26,5.39.86,2.86,2.18,7.09.68,9.8-5.26,1.33-23.68,2.91-29.19,2.83-1.79.48-3.66.67-5.5.95l-.39-.17c-.99-.44-2.09-.86-3.01-1.45-1.05-.67-1.47-1.49-1.91-2.61-3.39-8.56-5.2-18.06-7.95-26.84-.93-2.99-2.32-5.82-3.06-8.87-.39-1.61-.41-2.52.47-3.91,5.76-2.25,13.78-1.67,20-2.3,5.66-.58,11.26-1.45,16.91-2.04Z"/>
    <path class="cls-4" d="M340.87,404.51c1.88,1.43,3.8,7.32,5.05,9.59,3.6,6.53,7.99,13.3,12.69,19.11,5.51,6.82,12.44,12.87,19.08,18.56,3.49,2.98,8.36,5.72,10.99,9.48,3.88,5.57,9.57,22.33,12.14,29.39-8,4.43-17.42,6.88-26.16,9.42-7.08,2.73-14.92,3.73-22.4,4.82-.66-.93-7.64-8.26-8.29-8.47-2.92-.95-6.9.67-9.75-.84-4.37-8.73-8.98-18.16-11.38-27.64-5.03-19.9,1.24-33.73,10.96-50.73,2.4-4.21,4.55-8.53,7.05-12.68Z"/>
    <path class="cls-2" d="M83.51,332.87c5.54,1.11,14.52,6.8,19.58,9.83,3.86,2.32,9.58,5.95,10.58,10.6,1.88,8.75-8.29,20.89-12.6,27.75,1.99,2.1,3.81,3.81,6.31,5.34,3.86-2.66,5.96-6.42,8.83-9.98,1.37-1.71,2.57-2.69,4.83-2.9,7.27-.66,11.15,2.99,16.82,5.61,5.25,2.43,10.42,4.01,14.96,7.79,1.17.98,3.06,2.57,3.65,4,1.1,2.66,1.81,11.62,2.02,14.74,1.63,24.19-3.64,47.05-19.95,65.47-11.89-4.33-24.54-6.81-35.99-12.35-2.09-3.1-4.28-7.93-4.18-11.74.09-3.27-.42-6.6-.6-9.86-.14-2.59-.69-7.81,1.07-9.79l1.75-.06c4.65,2.34,3.14,13.24,4.34,17.9.7,2.73,2.19,5.24,3.56,7.68,1.83.8,4.08,1.5,6.09,1.23,3.19-.43,5.36-3.7,7.22-6l.41-.58c7.62-10.88,7.75-23.4,8.78-36.07.15-1.91,1.03-4.33.65-6.18-.81-4-2.02-19.35-3.25-21.6-.63-1.15-2.7-1.93-3.86-2.55l.24.06c-1.18-1.49-.11-2.28-.9-3.93-1.23-.28-2.42.1-3.51.68-.91.48-1.62.93-1.95,1.92l1.63.56-.09.59c-.69.46-2.18,1.29-2.58,2.02-.83,1.5-6.26,23.49-7.41,27.43-.81,2.8-2.04,7.78-4.71,9.24-5.26-1.86-29.8-11.55-32.7-14.47.39-3,7.69-32.69,8.04-33.17.15-.21.37-.36.55-.54,3.99-4,9.32-6.22,14.88-6.89,1.15-.14,3.61-.05,4.59-.48.95-.42,2.05-1.4,2.69-2.21.79-1,1.33-2.12,1.05-3.43-.27-1.26-1.22-2.29-2.28-2.95-7.59-4.68-23.94,6.23-32.12,8.48-.23,1.03-.01.57-.62,1.39-5.83.55-9.82,1.79-15.51-.85-1.85-.86-4.1-2.31-4.59-4.44-.58-2.52,2.21-5.21,3.9-6.71,4.02-3.59,18.38-12.45,23.58-15.63,1.93-1.18,5.05-2.16,6.32-4.09.18-.28.33-.57.5-.86Z"/>
    <path class="cls-4" d="M244,391.63c3.34,1.63,5.24,7.05,8.71,8.83.28.14.58.25.84.42,2.06,1.32,1.39,4.64,1.26,6.78-.41,6.35-.98,12.94-.23,19.28,1.09,9.26,4.39,18.18,5.89,27.38-1.55,1.33-3.19,2.48-4.92,3.58-24.35,15.39-55.04,19.12-83.01,12.8-5.63.15-11.97-1.91-17.25-3.72,9.01-18.55,11.74-28.54,12.82-49.21.18-3.5.95-7.98.05-11.38-.35-1.34-.58-2.55-.72-3.93,1.22-2.75,7.88-.96,10.42-.59,7.99,1.18,15.88,1.3,23.94,1,16.59-.62,27.66-2.87,42.19-11.25Z"/>
    <path class="cls-4" d="M435.48,542.42c.29.14.59.26.87.42,2.46,1.51,9.97,10.26,10.19,13.03-.52,1.3-1.36,2.98-1.39,4.4-.03,2.11,1.72,4.18,2.97,5.73,7.44,9.16,16.48,16.86,23.94,25.98,5.7,6.97,8.84,15.36,15.51,21.61-32.75-1.04-65.74,1.2-98.49-.17-17.7.53-35.46.24-53.17.24,2.4-7.67,6.56-14.95,9.77-22.32,1.59-3.64,2.93-8.48,5.03-11.73,1.02-1.58,5.27-3.44,6.97-4.41,3.08-1.75,5.29-4.12,7.73-6.65l.42-.23.24.69.35-.79c14.59-.98,40.14-10.08,53.45-16.55,5.36-2.61,10.65-5.91,15.59-9.24Z"/>
    <path class="cls-2" d="M322.28,92.51c.14-.01.28-.03.43-.04,3.86-.13,8.4.86,12.29,1.3,42.74,4.87,91.13,31.84,123.31,59.62,4.62,3.99,9.48,7.93,13.8,12.25,4.95,4.94,20.17,22.46,23,28.61.59,1.28.74,2.76.82,4.15.59,9.84-6.21,27.32-11.32,35.69-1.89,3.09-4.35,5.79-6.73,8.49-1.55-10.21-5.24-19.37-10.54-28.15-12.91-21.8-41.85-46.04-63.25-59.34-17.03-10.58-34.5-19.77-53.41-26.38-3.3-1.15-6.83-2.75-10.24-3.42-4.37-.86-9.05-.97-13.49-1.4-6.31-.61-13.34-1.06-19.55.52-10.39,2.65-15.55,11.01-20.61,19.67l-.58.05.85-.48-.78.55c-1.3-3.85.04-11.75.95-15.78,2.67-11.8,9.92-19.93,18.56-27.96,2.99-2.77,6.01-5.65,9.46-7.83,2.38.09,4.66.04,7.04-.13Z"/>
    <path class="cls-4" d="M408.73,62.87c2.33-.46,4.97-.3,7.34-.29,9.09.03,17.48,2.95,25.89,6.12,36.08,13.61,73.16,39.76,101.57,65.58,7.06,6.42,14.24,12.97,20.78,19.93,4.43,4.71,8.2,9.94,12.77,14.55-16.62-7.15-33.29-14.52-50.12-21.15-7.77-3.06-15.72-6.44-23.83-8.54-3.67-5.7-6.11-12.96-9.19-19.1-.96-1.71-2.36-3.67-4.15-4.61-1.14-.6-1.74-.53-2.93-.21-5.95,6.92,15.17,40.13,10.22,53.65-.74,2.04-1.95,5.11-4.03,6.01-6.86-6.05-12.99-14.3-19.85-20.86-15.1-14.43-31.09-25.73-48.93-36.4-5.01-3-9.88-6.21-15.07-8.9-13.07-6.7-26.58-12.49-40.45-17.34-3.17-1.09-13.35-2.14-14.98-3.86.16-.74.12-.93.65-1.53,2.05-2.32,6.48-4.21,9.18-5.78,14.08-8.19,28.48-16.12,45.11-17.28Z"/>
    <path class="cls-2" d="M442.07,198.86c1.04.43,1.72.69,2.52,1.51,2.61,2.67,11.03,10.55,11.53,14.02.99,6.94-15.58,50.56-19.35,58.3-2.58,5.3-10.29,18.96-14.51,22.25-3.87,3.02-9.08,3.87-13.54,5.74-11.46,4.81-26.97,13.98-35.38,23.12-7.93,8.63-11.8,21.23-17.51,31.36-5.03,8.95-11.95,16.38-18.93,23.81-.34-1.45-.64-3.09-1.27-4.44-.58-1.25-1.62-2.08-2.93-2.47-.4-.12-1.81-.25-2.14-.17-1.43.34-13.57,10.03-16.63,11.72-5.08,2.81-21.73,9.89-27.07,8.37-2.59-1.88-3.06-6.29-3.78-9.22l-4.74-2.72c-7.04,4.67-14.19,8.42-22.05,11.49-1.35-2.3-2.91-4.49-4.13-6.88-6.21-12.13-6.11-30.3-1.97-43.09-.31-1.27-.68-2.2-1.79-3.01-1.67-1.22-4.46-1.28-6.39-1.04-1.02.13-1.69.25-2.7-.02-1.43-4.21.75-10.64.95-15.04.1-2.21-.43-4.49,0-6.68,1.98-10.08,3.89-20.68,5.07-30.88l.98-.17.06-1.27-.48-.47.38-.86c.45-.03.76-.08,1.23.07,4.76,1.55,10.22,16.24,13.11,20.97,8.18,13.27,20.54,23.43,35.14,28.88,5.26,1.94,10.9,3.11,16.35,4.44,6.87,1.1,16.47.2,23.29-.95,7.43-1.25,22.24-9.05,26.63-15.24,2.69-3.8,3.71-8.83,2.84-13.39-.68-3.49-3.01-9.38-6.25-11.2-6.05-3.41-14.91-1.82-21.59-2.31-14.94-1.11-26.24-6.25-38.38-14.7-3.56-2.48-5.6-6.27-8.71-9.19-1.3-1.22-2.28-1.14-3.94-1.06-3,1.74-2.57,4.49-3.41,7.55-.91.88-1.76,1.44-2.94,1.88-8.57,3.17-20.22-.29-28.11-3.86-12.39-5.61-27.87-23.29-32.5-35.71,3.53,1.45,6.8,3.43,10.38,4.79,10.66,4.05,24.9,6.06,36.17,4.07,2.08,3.35,4.13,6.64,6.96,9.42,9.65,9.49,24.13,10.89,36.95,10.94,4.54.02,9.35-2.79,13.72-2.19,13.6,1.86,25.77,18.17,43.88,21.55,10.68,1.99,20.76,1.15,29.84-5.22,24.57-17.26,40.25-53.97,45.14-82.82Z"/>
    <path class="cls-4" d="M407.72,344.8c1.86-.26,3.85-.25,5.73-.14,9.41.54,21.18,6.36,26.52,14.24,6.99,10.35,8.83,26.79,12.28,38.88,9.81,34.3,24.03,72.58,45.4,101.4,2.88,3.88,6.24,7.02,9.32,10.67,1.4,1.66,1.52,2.61,1.26,4.73-1.07,8.88-10.05,18.05-16.55,23.49-6.58,5.49-22.55,15.24-31.46,14.47-2.23-1.7-4.29-3.66-6.32-5.6-8.79-8.4-17.74-17.85-24.91-27.72-21.55-29.66-38.35-72.7-39.27-109.44-.14-5.25.17-20.1-3.61-23.21-.66-.54-1.02-.31-1.8-.25-1.83.98-2.99,2.6-4.31,4.17-.02,3.83-.54,7.41-1.19,11.18-1.08-2.96-2.13-5.9-2.81-8.98-2.44-10.94-4.69-26.29,1.86-36.25,4.7-7.14,12.4-11.02,20.86-11.19,2.89-.06,5.67.27,8.53-.35.16-.03.31-.07.47-.11Z"/>
    <path class="cls-3" d="M311.57,132.74c7.85-.89,17.01-.15,24.73,1.33,8.15,1.56,15.65,4.55,23.26,7.78,22.55,9.57,39.91,21.03,59.4,35.51,5.12,3.81,11.58,7.51,15.23,12.84.51,2.24-3.35,17.42-4.22,20.51-1.6,5.68-3.26,11.44-5.49,16.9-6.52,15.9-20.98,39.75-36.28,48.17-10.58,5.83-24.7,1.21-34.36-4.69-4.9-2.99-9.36-6.71-14.35-9.55-4.75-2.71-11.41-5.36-16.73-6.44-4.01-.81-7.21,2.15-11.05,2.7-6.9.99-15.84-.34-22.48-2.35-5.13-1.55-10.6-4.08-13.25-8.98-1.2-1.96-2.11-3.53-2.32-5.85-.4-4.42.88-8.83,3.74-12.24,2.16-2.58,5.11-4.44,8.54-4.6,9.7-.43,18.65,4.93,25.62,11.09,1.65,1.46,2.72,2.17,4.87,2.86.2.06.4.12.6.18,1.28-1.63,2.35-3.21,3.32-5.04-.74-1.36-1.48-2.77-2.34-4.06-1.96-2.93-9.12-9.46-12.42-10.09-.64-.12-.95-.31-1.45-.73,1.18-2.63,3.49-4.82,5.03-7.28,2.79-4.46,3.46-12.45,2.17-17.41-.44-1.69-1.54-2.87-3.11-3.66-1.24-.62-2.68-.66-3.98-.24-5.61,1.8-11.15,12.18-11.23,17.97-.04,2.55,2.03,5.59.88,7.88-3.23,1.25-6.89-1.09-10.03-.03-2.12.72-5.36-.04-7.21.87-2.37,1.17-3.91,4.07-6.52,4.92-2.14-2.66-.63-5.7-.8-8.72-.06-1.09-.56-2.19-.47-3.26.14-1.67.82-3.41,1.08-5.09.6-3.93.55-8.01,1.53-11.88,2.74-10.75,12.79-30.82,20.93-38.09,4.88,10.31,11.94,20.63,19.58,29.06,2.45.38,4.72.62,6.81-.99,2-1.55,2.74-4.19,3.06-6.59,1.17-8.7-4.05-21.16-9.17-28.03-3-4.03-6.29-7.23-11.4-7.97,3.2-4.05,5.24-5.6,10.29-6.73Z"/>
    <path class="cls-1" d="M366.97,216.79c1.48-.13,3.05-.32,4.51.04,1.47.36,2.83,1.74,3.53,3.04,2.36,4.38.52,11.49-.99,16.02-2.24,6.7-6.42,13.74-12.86,16.96-1.27.33-2.52.7-3.83.4-1.52-.35-2.85-1.15-3.65-2.52-2.63-4.51-1.1-12.12.38-16.91,2.18-7.14,6.18-13.47,12.91-17.01Z"/>
    <path class="cls-1" d="M386.29,171.81c.78.54,1.02.74,1.96.71.99-.03,1.53-.2,2.52.11,2.6.82,5.76,2.34,6.92,4.97,1.4,3.14.36,6.81-.79,9.83-9.7,6.88-21.09,12.25-32.39,15.9-4.44,1.44-9.03,2.42-13.43,3.98l-.46.17c-2.03.53-4.68.73-6.66-.09-2.23-.92-5.21-2.86-5.9-5.31-.39-1.39-.02-2.54.64-3.76,1.41-2.57,3.65-4.65,6.12-6.19,5.97-3.75,13.8-5.37,20.17-8.6,7.04-3.56,13.82-9.31,21.31-11.72Z"/>
    <path class="cls-3" d="M312.6,624.5c5.7.57,11.63.21,17.37.21l33.11-.03,62.75.35c18.04-.2,36.08-.26,54.11-.2,13.47.17,27.46-1.04,40.81.68.64.9.93,1.7,1.12,2.76,1.48,8.09.26,19.43.31,27.95.19,15.79.22,31.57.12,47.36-.02,6.02.24,12.1.02,18.12-.05,1.41.07,3.01-.73,4.18-19.08.12-38.16-.13-57.23.13-16.82.32-33.64.34-50.46.06-7.26-.07-14.61.21-21.85-.13-.78-.04-1.52-.13-2.3-.02-.14.02-.26.06-.4.09-.8-.19-1.36-.26-2.18-.21-16.91,1.1-204.28.47-205.46-.05-1.27-7.87-.14-26.12-.12-35.08.06-20.4-.58-40.9-.2-61.29.02-1.25-.05-2.59.66-3.67,1.23-.33,2.41-.67,3.7-.68l89.13-.02c12.43-.09,25.34.52,37.71-.52Z"/>
    <path class="cls-1" d="M190.79,631.67c21.64.78,43.54.01,65.22.15l165.78.2c20.04-.07,40.07,0,60.11.2,8.69.04,17.54-.58,26.2-.11,1.82.1,4.5.09,5.9,1.27.56,1.58.81,2.98.91,4.66.39,6.41-.2,12.94-.09,19.36.18,11.38.09,22.66.02,34.03-.03,5.9.45,11.98-.16,17.86.09.51.14.74.17,1.22.16,2.19.17,5.03-1.55,6.61-.96.88-2.18,1.36-3.43,1.62-4.99,1.05-11.86-.11-17.1-.18-9.65-.14-19.36-.01-29.02,0l-146-.09c-31.4.21-62.79.24-94.19.08-7.85-.07-15.69-.36-23.54-.47-2.91-.04-5.73.66-8.62.3-.67-.68-1.74-1.61-2.07-2.52-.74-2.04-.54-75.18-.08-80.09.14-1.46.92-2.84,1.57-4.14Z"/>
    <path class="cls-2" d="M202.48,641.59c5.27,1.46,11.94.83,17.44.91,14.69.19,29.38.18,44.07-.02l168.39-.2c13.09.11,26.27.25,39.36.14,8.44-.08,17.36-.97,25.73-.05,2.44.27,4.93.11,7.33.64.32,5.04.03,10.17,0,15.23-.03,7.79.11,15.55.02,23.35-.09,7.54.38,15.19-.1,22.71-.02,1.44.03,2.38-.86,3.56-6.04,1.54-36.78.34-45.59.3l-121.32-.28-85.26.1-33.06.14c-5.86.02-12.95.99-18.61-.39-.53-1.68-1.15-55.75-.46-61.25.33-2.65.85-3.35,2.91-4.9Z"/>
    <path class="cls-3" d="M261.21,677.04c1.68-.03,3.84-.3,5.34.61,1.09.66,1.88,1.58,2.11,2.85.43,2.45-1.21,4.89-2.68,6.67-.93.42-2.23,1.05-3.25,1.16-1.33.14-1.64.01-2.58-.79-.97-3.08.48-7.37,1.07-10.5Z"/>
    <path class="cls-3" d="M445.18,675.38c1.23.21,1.45.14,2.29,1.02.49,4.14-1.24,9.59-3.79,12.86-1.07-.45-1.74-.9-2.6-1.67-.42-.91-.71-1.68-.71-2.7-.01-3.61,2.46-6.99,4.8-9.52Z"/>
    <path class="cls-3" d="M382,675.51c.92.02,1.61-.02,2.45.43.68.36.96,1.12,1.09,1.86.65,3.64-2.72,8.54-4.98,11.04-.99-.03-1.34-.16-2.21-.54-.53-.82-.74-1.26-.78-2.27-.13-3.3,2.34-8.07,4.45-10.51Z"/>
    <path class="cls-3" d="M455.34,301.52c34.64-1.14,83.88,2.98,115.76,17.87,16.72,7.64,31.19,19.46,42.01,34.32,17.23,23.99,26.62,54.26,35.82,82.04,4.78,14.43,12.16,40.62,19.53,53.52,2.79,4.86,6.74,9.52,10.59,13.58,3.71,3.92,8.35,6.46,12.27,10.06.62.58,1.33,1.32,1.34,2.18.16,12.34-12.07,28.21-20.38,36.67-1.79,1.82-4.9,5.64-7.53,5.66-.33-.89,3.17-26.14,1.69-33.1-.84-4-.1-7.87-.72-11.86-1.01-6.49-2.52-19.36-8.09-23.32-1.31-.15-2.19-.1-3.34.64-1.46.94-2.08,2.05-1.72,3.73,4.86,22.99,6.46,43.68,1.68,66.85-5.82,28.25-28.94,55.77-52.7,71.07-5.23,3.36-11.01,6.91-16.72,9.38-12.09,5.23-39.58,12.89-52.36,10.12-.14-8.48-.12-16.96.04-25.43,2.68,3.31,5.47,6.54,8.67,9.36,6.07,5.34,9.78,6.53,17.73,5.96,14.43-1.02,26.04-10.05,35.15-20.68,8.68-10.13,15.46-22.12,18.24-35.23.51-2.45,1.33-5.43,1.02-7.93-.33-2.77-2.22-7.37-4.53-9.02-2.06-1.48-8.73-5.07-11.11-4.72-7.49,1.1-12.64,7.84-16.96,13.39-1.23-.8-2.15-1.5-3.1-2.62-.78-2.4.19-5.36.55-7.84-2.45-5.91-5.2-8.31-10.7-11.21-1.98-.86-4-1.8-6.07-2.44-2.92-.9-7.46-1.13-9.9-2.79-1.41-.97.11-8.89-.35-10.84-.45-1.9-21.53-28.8-24.51-32.11-2.39-2.66-5.66-6.33-8.94-7.85-2.41-1.11-5.14.18-7.41,1.04-19.32-20.38-38.85-68.71-46.73-95.96-1.53-5.32-2.43-10.85-3.77-16.23-2.68-10.76-6.11-21.88-10.97-31.78,4.31-.51,11.51,8.76,16.28,8.51,1.4-.07,2.42-.53,3.4-1.53.18-1.15.27-1.55-.25-2.66-5.33-11.32-32.84-20.91-44.25-24.1-3.4-.95-6.96-1.09-10.29-2.16l.54-.63c4.67-.83,10.16-2.4,14.86-2.14,11.38.62,22.4-.29,33.84,1.16,28.45,3.54,55.63,13.85,79.27,30.06,5.11,3.58,9.84,7.83,14.71,11.74,12.28,9.87,23.63,20.28,33.97,32.21,3.24,3.74,10.05,14.68,14.22,15.93,1.42.43,2.28.14,3.49-.64,1.16-.75,1.49-1.31,1.86-2.61-5.16-16.84-47.98-53.8-63.8-64.56-19.93-13.55-47.41-25.94-71.18-30.32-22.42-4.14-47.79-3.27-70.12.99-5.59,1.07-11.12,3.09-16.34,5.32-3.02,1.29-6.98,3.66-10.16,4.17-.96.15-.55.22-1.37-.34.38-1.2,1.2-1.96,2.05-2.84,19.82-20.29,47.96-29.47,75.77-30.04Z"/>
    <g>
      <path d="M223.67,687c-5.32,0-9.06-3.23-9.06-10.47v-3.37c0-7.31,3.74-10.47,9.06-10.47s9.1,3.16,9.1,10.47v3.37c0,7.24-3.74,10.47-9.1,10.47ZM219.41,676.53c0,4.53,1.48,6.42,4.26,6.42s4.29-1.89,4.29-6.42v-3.37c0-4.53-1.51-6.42-4.29-6.42s-4.26,1.89-4.26,6.42v3.37Z"/>
      <path d="M251,679.24c0,4.46-2.27,7.76-6.69,7.76-1.79,0-2.99-.34-3.78-1v7.21h-4.39v-23.69h4.39v1.13c.82-.93,2.06-1.44,3.81-1.44,3.98,0,6.66,2.78,6.66,7.69v2.33ZM246.61,678.96v-1.79c0-2.75-.86-4.26-3.02-4.26s-3.06,1.37-3.06,3.88v2.16c0,2.47.58,4.33,3.06,4.33s3.02-1.85,3.02-4.33Z"/>
      <path d="M267.18,684.08c-1.2,2.09-3.19,2.92-6.28,2.92-5.15,0-7.62-3.33-7.62-7.76v-2.33c0-5.18,2.61-7.69,7.07-7.69,4.84,0,7.07,2.82,7.07,8.03v1.96h-9.78c.03,2.37.79,4.09,3.23,4.09,1.82,0,2.4-.55,3.06-1.48l3.26,2.27ZM257.63,676.08h5.39c-.1-2.23-1-3.16-2.64-3.16-1.75,0-2.57,1.2-2.75,3.16Z"/>
      <path d="M270.58,669.52h4.29v1.44c.65-.86,2.03-1.75,3.95-1.75,3.47,0,6.28,1.65,6.28,6.73v10.75h-4.36v-10.06c0-2.68-.96-3.64-2.75-3.64-2.03,0-3.02,1.34-3.02,3.6v10.09h-4.39v-17.17Z"/>
      <path d="M310.14,669.15c-1.03-1.61-2.27-2.4-4.67-2.4-2.16,0-3.33,1-3.33,2.61,0,1.85,1.51,2.68,4.67,3.47,4.94,1.24,7.18,3.09,7.18,7.28,0,3.88-2.61,6.9-8.17,6.9-4.15,0-7.04-1.13-9.13-3.88l3.67-2.54c1.27,1.58,2.71,2.37,5.15,2.37,2.75,0,3.67-1.2,3.67-2.64,0-1.65-1-2.58-4.84-3.57-4.67-1.24-7-3.47-7-7.38s2.47-6.66,8.1-6.66c3.78,0,6.63,1.27,8.31,3.88l-3.6,2.58Z"/>
      <path d="M331.18,679.1c0,4.7-2.23,7.9-7.42,7.9s-7.42-3.09-7.42-7.9v-2.06c0-5.15,2.71-7.83,7.42-7.83s7.42,2.68,7.42,7.83v2.06ZM326.82,678.96v-1.79c0-2.75-.89-4.26-3.06-4.26s-3.06,1.51-3.06,4.26v1.79c0,2.47.62,4.33,3.06,4.33s3.06-1.85,3.06-4.33Z"/>
      <path d="M348.63,686.69h-4.29v-1.44c-.72,1.17-1.65,1.75-3.91,1.75-3.47,0-6.32-1.72-6.32-6.76v-10.71h4.39v10.06c0,2.71.96,3.64,2.78,3.64,2.03,0,2.99-1.24,2.99-3.6v-10.09h4.36v17.17Z"/>
      <path d="M361.47,674.3c-.45-.65-1.06-1.3-2.16-1.3-1.65,0-2.75,1.2-2.75,3.6v10.09h-4.39v-17.17h4.29v1.44c.58-.86,1.72-1.75,3.74-1.75s3.6.89,4.63,2.68l-3.37,2.4Z"/>
      <path d="M379.29,684.08c-1.2,2.03-3.16,2.92-6.25,2.92-4.91,0-7.66-3.09-7.66-7.76v-2.33c0-5.01,2.78-7.69,7.9-7.69,2.64,0,4.81.96,6.01,2.85l-3.3,2.3c-.58-.82-1.44-1.44-2.81-1.44-2.47,0-3.43,1.51-3.43,4.26v1.79c0,2.47.65,4.33,3.43,4.33,1.3,0,2.23-.45,2.85-1.48l3.26,2.27Z"/>
      <path d="M394.37,684.08c-1.2,2.09-3.19,2.92-6.28,2.92-5.15,0-7.62-3.33-7.62-7.76v-2.33c0-5.18,2.61-7.69,7.07-7.69,4.84,0,7.07,2.82,7.07,8.03v1.96h-9.79c.03,2.37.79,4.09,3.23,4.09,1.82,0,2.4-.55,3.06-1.48l3.26,2.27ZM384.82,676.08h5.39c-.1-2.23-1-3.16-2.64-3.16-1.75,0-2.58,1.2-2.75,3.16Z"/>
      <path d="M419.26,669.15c-1.03-1.61-2.27-2.4-4.67-2.4-2.16,0-3.33,1-3.33,2.61,0,1.85,1.51,2.68,4.67,3.47,4.94,1.24,7.17,3.09,7.17,7.28,0,3.88-2.61,6.9-8.17,6.9-4.15,0-7.04-1.13-9.13-3.88l3.67-2.54c1.27,1.58,2.71,2.37,5.15,2.37,2.75,0,3.67-1.2,3.67-2.64,0-1.65-1-2.58-4.84-3.57-4.67-1.24-7-3.47-7-7.38s2.47-6.66,8.1-6.66c3.78,0,6.63,1.27,8.31,3.88l-3.6,2.58Z"/>
      <path d="M431.59,676.39h3.4v-1c0-1.92-.58-2.54-3.05-2.54-1.68,0-2.51.24-3.23,1.37l-3.09-2.16c1.27-2.09,3.19-2.85,6.73-2.85,4.43,0,6.94,1.3,6.94,6.21v11.26h-4.29v-1.51c-.69,1.17-1.72,1.82-3.71,1.82-3.57,0-6.04-1.89-6.04-5.39s2.75-5.22,6.35-5.22ZM434.99,679.62h-2.88c-1.79,0-2.57.58-2.57,1.92s1,1.92,2.51,1.92c1.99,0,2.95-.86,2.95-3.19v-.65Z"/>
      <path d="M442.79,669.52h4.29v1.44c.65-.86,2.03-1.75,3.95-1.75,3.47,0,6.28,1.65,6.28,6.73v10.75h-4.36v-10.06c0-2.68-.96-3.64-2.75-3.64-2.03,0-3.02,1.34-3.02,3.6v10.09h-4.39v-17.17Z"/>
      <path d="M459.58,669.52h2.2v-3.78h4.36v3.78h3.36v3.71h-3.36v7.17c0,1.72.34,2.44,1.96,2.44h1.41v3.85h-1.85c-4.15,0-5.87-1.17-5.87-5.6v-7.86h-2.2v-3.71Z"/>
      <path d="M477.71,676.39h3.4v-1c0-1.92-.58-2.54-3.05-2.54-1.68,0-2.51.24-3.23,1.37l-3.09-2.16c1.27-2.09,3.19-2.85,6.73-2.85,4.43,0,6.94,1.3,6.94,6.21v11.26h-4.29v-1.51c-.69,1.17-1.72,1.82-3.71,1.82-3.57,0-6.04-1.89-6.04-5.39s2.75-5.22,6.35-5.22ZM481.11,679.62h-2.88c-1.79,0-2.57.58-2.57,1.92s1,1.92,2.51,1.92c1.99,0,2.95-.86,2.95-3.19v-.65Z"/>
    </g>
  </g>
</svg>